<svg id="Layer_1" data-name="Layer 1" xmlns="http://www.w3.org/2000/svg" viewBox="0 0 192.37 181.84"><circle cx="98.33" cy="90.92" r="77.08" fill="#f6f6ca"/><path d="M160.12,111c-.26-2-.21-4.14-1.86-5.72-.16-.16-.11-.58-.12-.88a7.22,7.22,0,0,0-4.08-6.39c-.41-.22-1-.41-1.16-.77-1.12-2.64-3-5.08-1.91-8.29.47-1.43.3-3.06.76-4.49a17.57,17.57,0,0,0,.82-8.33c-.41-2.55-1.53-5-.9-7.73a1.53,1.53,0,0,0-.3-1c-.84-1.35-1.68-2.7-2.56-4-1.39-2.05-2.78-4.1-4.24-6.11A17.48,17.48,0,0,0,140.5,53c-3.16-2.22-6.64-4.13-8.82-7.56-.36-.56-6.66-1.23-9-.85a16,16,0,0,0-9.47,4.89c-.44-2.58-.85-5.16-1.36-7.72a1.52,1.52,0,0,0-.41-.64.79.79,0,0,0-1-.11,1.52,1.52,0,0,0-.67.66c-.58,1.63-1,3.31-1.61,5.42-.59-.93-1-1.54-1.4-2.21-1.84-3.4-3.53-7-6.56-9.48a79,79,0,0,0-7.89-5.52,5,5,0,0,0-2.89-.76,103.59,103.59,0,0,0-11.13,1.29C64.9,33,53.78,39.81,44.24,49.45c-4.8,4.84-7.86,10.48-7.88,17.47a5,5,0,0,0,.18,1,2.55,2.55,0,0,0,.51-.12A40.42,40.42,0,0,1,48.2,63.9c5.25-1.07,10.55-2,15.78-3.16a40.45,40.45,0,0,0,11.81-4.57A114.8,114.8,0,0,0,85.5,49.9c3.48-2.59,6.71-5.5,10-8.3a3.5,3.5,0,0,1,5.2.67c4.93,7.53,7.12,15.89,7.57,24.81.24,4.76.59,9.53,1,14.29.24,3.08.68,6.14.83,9.23.2,4,.21,8.09.28,12.13,0,1.5,0,3,0,4.51a32.61,32.61,0,0,1-.14,3.83c-.3,2.16-.78,4.29-1.12,6.44-.64,4.19-1.28,8.38-1.82,12.59a22.75,22.75,0,0,1-2.9,8.36,27.12,27.12,0,0,0-2.84-1.53c-1.76-.7-2.6-.31-3.46,1.37a4.49,4.49,0,0,1-4.41,2.07c-.84-.13-2.12-.21-2.52.27a3.85,3.85,0,0,1-2.69,1.15,14.32,14.32,0,0,0-2.54.78c-.2.08-.27.56-.31.87a.8.8,0,0,0,.6.25c1.77-.44,3.52-.93,5.29-1.38a3.89,3.89,0,0,1,1.23-.08c.77.06,1.68.49,2.26.2,1.91-.93,4.24-1.3,5.3-3.74.77.52,1.64.82,2.06,1.43,1.74,2.51,4.46,2.74,7.05,3.08a4.11,4.11,0,0,0,2.9-1c2.28-2.08,2.06-1.1,3.55.39.15.15.18.45.34.54.5.26,1.1.75,1.52.64a9.13,9.13,0,0,1,6,.79,13.87,13.87,0,0,0,7.64,1.34c.83-.14,1.71,0,2.54-.19a9.4,9.4,0,0,0,1.8-.83c-.47-.42-.89-1.11-1.42-1.2a26.48,26.48,0,0,0-3.22-.08,19,19,0,0,1-3.86-.46c-2.65-.76-5.13-2.26-8-1.88a1.74,1.74,0,0,1-2-1.17,2.64,2.64,0,0,0-2.1-1.67c-.83-.16-1.67-.25-2.6-.39a3.81,3.81,0,0,1,.08-.8,34.17,34.17,0,0,1,1.2-3.88c1.6-3.67,1.49-7.57,1.81-11.43.19-2.34.52-4.67.75-7a56,56,0,0,0,.44-5.77c-.06-4.51-.26-9-.44-13.52-.13-3.4-.28-6.79-.49-10.17-.41-6.56-.87-13.12-1.33-19.68a45.91,45.91,0,0,0-.48-5.13,12,12,0,0,1,1-7.84c.72-1.41,1.45-2.76,3.5-2.67a21.47,21.47,0,0,0,3.32-.18,2.44,2.44,0,0,1,2.33.79c.6.63,1.43,1.47,1.41,2.19a8.2,8.2,0,0,0,1.52,4.57c2.92,4.94,2.88,10,.7,15.18-1,2.33-2.06,4.62-3,7s-1.52,4.56.52,6.69c.39.4,1.16,1,.57,1.89A2.93,2.93,0,0,0,126,91.6a5.73,5.73,0,0,1,.9,3.26c0,3.79.83,4.61,4.63,5.26,1.47.25,2.93.91,3.09,2.49.23,2.29,1.45,3.79,2.82,5.5,1.86,2.33,4.37,2.75,6.87,3.33a13.7,13.7,0,0,0,3.8-.18c0,.35,0,.74.08,1.12s.11.77.16,1.15c.19,1.33.9,1.87,2.19,1.65a17.93,17.93,0,0,1,2.29-.38c.44,0,1.23.18,1.27.41a4.14,4.14,0,0,1,0,2.21c-.11.32-.94.53-1.45.54-.72,0-1.52-.3-1.82.67a1.57,1.57,0,0,0,1.46,1.89,33.45,33.45,0,0,0,3.47,0,4.24,4.24,0,0,0,4.31-4s0,0,0-.06c.08-.48.09-.92.13-1.34a17.59,17.59,0,0,0,.06-1.92l0-1.16a7,7,0,0,0-.06-1ZM99.46,38c-3.78-.19-6.25,2.09-8.78,4.46A96.36,96.36,0,0,1,83.1,48.7c-2.25,1.72-4.75,3.13-6.93,4.93a24.12,24.12,0,0,1-11.09,4.85c-5.66,1.13-11.34,2.17-17,3.45-2.83.64-5.56,1.73-8.33,2.62-.36.12-.7.29-1.14.48-.86-2.85.13-5.27,1.28-7.68,2-4.16,5.38-7.15,8.74-10a119.28,119.28,0,0,1,11.7-8.6,43.23,43.23,0,0,1,14.55-6c3.79-.85,7.73-1.09,11.49-2,3.27-.83,5.55.58,7.89,2.34a2.26,2.26,0,0,1,.29.25.53.53,0,0,1,.1.16,40.37,40.37,0,0,0-5.46-1.13,10,10,0,0,0-4.78.58c-6.79,3.24-13.56,6.53-20.14,10.15A65.66,65.66,0,0,0,49,55a.77.77,0,0,0-.25.61c1.8-1.34,3.6-2.67,5.39-4A141.55,141.55,0,0,1,80.3,36c4.39-2,8.67-2.55,13.2-.74,1.31.53,2.69.91,4,1.42.73.29,1.42.7,2.14,1.06C99.5,38,99.48,38,99.46,38Zm15,55.49c.25,4.59.48,9.2.46,13.79,0,3-.48,6.07-.75,9.1-.15,1.62-.32,3.24-.47,4.86a57.64,57.64,0,0,1-2.4,13.09c-.36,1.09-.62,2.22-.9,3.33-.76,3.06-1.67,3.45-4.53,1.87.46-.89.88-1.8,1.38-2.66,2.23-3.89,1.78-8.38,2.75-12.56,1.08-4.66,1.63-9.45,2.35-14.2a24.26,24.26,0,0,0,.06-2.83c.07-2.07.31-4.14.2-6.19-.31-5.78-.76-11.55-1.18-17.32-.25-3.35-.56-6.68-.84-10-.42-5-1-10-1.2-15a92.8,92.8,0,0,1,.21-9.28,5.49,5.49,0,0,1,.72-1.83.27.27,0,0,1,.24-.17h0a.22.22,0,0,1,.23.16,38.21,38.21,0,0,1,1.28,5.51c.28,3,.18,6,.35,9,.2,3.64.52,7.27.75,10.9C113.65,79.88,114.12,86.69,114.49,93.51Zm43.05,24.29h-.41c-.24-.89-.52-1.77-.74-2.66-.53-2.14-1.81-2.93-4-2.47l-2.33.45c-.14-.88-.23-1.68-.39-2.46-.33-1.56-1.11-1.91-2.59-1.28a5.9,5.9,0,0,1-2.2.52c-.48,0-1-.46-1.42-.73h0l.05,0c-2.07.53-3.54-.4-5.2-1.58a4.37,4.37,0,0,1-2.05-3.71c-.15-3.68-1.4-5.1-5-5.64-2.59-.4-3.58-1.8-3.17-4.74a3.17,3.17,0,0,0-.62-2.84c-.49-.55-1-1.33.05-1.94l.81,1.14c1.12-6.1,5.83-9.75,8.33-14.71-3.76,3.5-7,7.36-8.8,12.17a11.32,11.32,0,0,1-1-1.44c-.53-1.13-1.17-2-1-3.62.47-3.67,2.34-6.71,3.53-10.05a19.09,19.09,0,0,0,.32-12.47,57,57,0,0,0-2.52-6.83,15.14,15.14,0,0,0-3.19-4.46,2.34,2.34,0,0,0-1.48-.47,42.78,42.78,0,0,1-4.67,0c.77-.35,1.53-.75,2.33-1,2-.75,4.08-1.47,6.28-.88,1.74.47,3.37.87,4.48,2.75a11.5,11.5,0,0,0,4.07,3.62,14.17,14.17,0,0,1,4.53,4.65,3.08,3.08,0,0,0,1,1c-.19-.61-.37-1.22-.56-1.83l.31-.16L143,59.4c.5.64,1,1.3,1.52,1.9,2.65,3,5.07,6,5.75,10.21a44.68,44.68,0,0,1,.16,9.87c-.08,1.22-.82,2.4-1.18,3.62a16.08,16.08,0,0,0-.33,2.08,13.62,13.62,0,0,1-.45,2.81,3.08,3.08,0,0,0,.07,2.82,18.74,18.74,0,0,1,1.3,3.06,7.38,7.38,0,0,0,3.36,4.4c2.3,1.23,2.91,3.49,3.7,5.6a18.67,18.67,0,0,1,1.23,5.34A20.4,20.4,0,0,1,157.54,117.8Z"/><path d="M115,107.3c0,3-.48,6.07-.75,9.1-.15,1.62-.32,3.24-.47,4.86a57.64,57.64,0,0,1-2.4,13.09c-.36,1.09-.62,2.22-.9,3.33-.76,3.06-1.67,3.45-4.53,1.87.46-.89.88-1.8,1.38-2.66,2.23-3.89,1.78-8.38,2.75-12.56,1.08-4.66,1.63-9.45,2.35-14.2a24.26,24.26,0,0,0,.06-2.83c.07-2.07.31-4.14.2-6.19-.31-5.78-.76-11.55-1.18-17.32-.25-3.35-.56-6.68-.84-10-.42-5-1-10-1.2-15a92.8,92.8,0,0,1,.21-9.28,5.49,5.49,0,0,1,.72-1.83.27.27,0,0,1,.24-.17h0a.22.22,0,0,1,.23.16,38.21,38.21,0,0,1,1.28,5.51c.28,3,.18,6,.35,9,.2,3.64.52,7.27.75,10.9.45,6.82.92,13.63,1.29,20.45C114.74,98.1,115,102.71,115,107.3Z" fill="#b0d235"/><path d="M99.65,37.76c-.15.2-.17.26-.19.26-3.78-.19-6.25,2.09-8.78,4.46A96.36,96.36,0,0,1,83.1,48.7c-2.25,1.72-4.75,3.13-6.93,4.93a24.12,24.12,0,0,1-11.09,4.85c-5.66,1.13-11.34,2.17-17,3.45-2.83.64-5.56,1.73-8.33,2.62-.36.12-.7.29-1.14.48-.86-2.85.13-5.27,1.28-7.68,2-4.16,5.38-7.15,8.74-10a119.28,119.28,0,0,1,11.7-8.6,43.23,43.23,0,0,1,14.55-6c3.79-.85,7.73-1.09,11.49-2,3.27-.83,5.55.58,7.89,2.34a2.26,2.26,0,0,1,.29.25.53.53,0,0,1,.1.16,40.37,40.37,0,0,0-5.46-1.13,10,10,0,0,0-4.78.58c-6.79,3.24-13.56,6.53-20.14,10.15A65.66,65.66,0,0,0,49,55a.77.77,0,0,0-.25.61c1.8-1.34,3.6-2.67,5.39-4A141.55,141.55,0,0,1,80.3,36c4.39-2,8.67-2.55,13.2-.74,1.31.53,2.69.91,4,1.42C98.24,37,98.93,37.4,99.65,37.76Z" fill="#b0d235"/><path d="M158.11,111.11a18.67,18.67,0,0,0-1.23-5.34c-.79-2.11-1.4-4.37-3.7-5.6a7.38,7.38,0,0,1-3.36-4.4,18.74,18.74,0,0,0-1.3-3.06,3.08,3.08,0,0,1-.07-2.82,13.62,13.62,0,0,0,.45-2.81,16.08,16.08,0,0,1,.33-2.08c.36-1.22,1.1-2.4,1.18-3.62a44.68,44.68,0,0,0-.16-9.87c-.68-4.22-3.1-7.22-5.75-10.21-.54-.6-1-1.26-1.52-1.9l-2.63-3.28-.29.21.54,1.78a3.08,3.08,0,0,1-1-1,14.17,14.17,0,0,0-4.53-4.65A11.5,11.5,0,0,1,131,48.84c-1.11-1.88-2.74-2.28-4.48-2.75-2.2-.59-4.25.13-6.28.88-.8.29-1.56.69-2.33,1a42.78,42.78,0,0,0,4.67,0,2.34,2.34,0,0,1,1.48.47,15.14,15.14,0,0,1,3.19,4.46,57,57,0,0,1,2.52,6.83,19.09,19.09,0,0,1-.32,12.47c-1.19,3.34-3.06,6.38-3.53,10.05-.21,1.59.43,2.49,1,3.62a11.32,11.32,0,0,0,1,1.44c1.8-4.81,5-8.67,8.8-12.17-2.5,5-7.21,8.61-8.33,14.71l-.81-1.14c-1.05.61-.54,1.39-.05,1.94a3.17,3.17,0,0,1,.62,2.84c-.41,2.94.58,4.34,3.17,4.74,3.57.54,4.82,2,5,5.64a4.37,4.37,0,0,0,2.05,3.71c1.66,1.18,3.13,2.11,5.2,1.58l-.05,0h0a4.79,4.79,0,0,1-.29-6.08,14,14,0,0,0,.06,3.17,15.47,15.47,0,0,0,1.42,3l-1.19-.09a0,0,0,0,0,0,0c.47.27.94.73,1.42.73a5.9,5.9,0,0,0,2.2-.52c1.48-.63,2.26-.28,2.59,1.28.16.78.25,1.58.39,2.46l2.33-.45c2.2-.46,3.48.33,4,2.47.22.89.5,1.77.74,2.66l.41,0A20.28,20.28,0,0,0,158.11,111.11ZM128.72,94l-.3-.13a18.89,18.89,0,0,1,5-10.62Zm20-23.87-5.1-2.58C145.32,66.31,148.34,67.81,148.74,70.12Zm-15.48,3.95c-2.22,2.28-4.26,4.69-5.14,7.85-.25.88-.48,1.77-.71,2.65l-.54,0a4.26,4.26,0,0,1-.2-1.33,18.71,18.71,0,0,1,7.62-11.5,1.39,1.39,0,0,1,1.16-.17C134.72,72.42,134,73.28,133.26,74.07Zm7.8,33.72c-1.49-.73-.9-4.59,1-6.07C141.75,103.74,141.4,105.79,141.06,107.79Zm4.35-24.41c-.23-.34-.64-.67-.66-1A36.15,36.15,0,0,0,140.21,67c-1.26-2.29-2.44-4.63-3.6-7a9.12,9.12,0,0,1-.48-1.74l.61-.19c4.41,7.84,9.06,15.6,9,25.07ZM145.52,72c-.18-.16-.3-.71-.19-.81a1.17,1.17,0,0,1,.94-.32,3.09,3.09,0,0,1,2.06,3.45C147.34,73.48,146.41,72.75,145.52,72Z" fill="#a07d3b"/><path d="M103.36,146.82c-.73.88-1.3,1.24-2.27.94-2.09-.65-4.37-1-6.3,0a8.23,8.23,0,0,1-5.62.69,26.2,26.2,0,0,0-3.64.08c-.27,0-.54-.44-.81-.68.35-.23.7-.67,1-.65,2.06.09,4.11.32,6.18.43a2.23,2.23,0,0,0,1.14-.43C96.36,145.29,99.71,145.47,103.36,146.82Z"/><path d="M83.7,143.5a4.33,4.33,0,0,1-1.33.78c-2,.35-4,.64-6,.84a4.52,4.52,0,0,1-2-.36,1.09,1.09,0,0,1-.57-.91c.05-.29.63-.78.81-.72,2.69,1,5.35-.29,8-.07.32,0,.64.1.95.15Z"/><path d="M123.8,147.82c-.31.19-.62.53-.94.54-1.31,0-2.62,0-3.94,0-1,0-2-.15-3-.19s-1.72.06-2.57,0c-.23,0-.42-.5-.63-.77.25-.18.49-.5.76-.52a22.49,22.49,0,0,1,3.57-.14c2.23.16,4.45.46,6.67.71Z"/><path d="M141.16,144.88c-1.45,1.36-2.25,1.48-3.37.42-.17-.16,0-1.11.15-1.13C139,144,140.24,143.65,141.16,144.88Z"/><path d="M127,148.12a21.91,21.91,0,0,1-2.24.63c-.16,0-.52-.41-.56-.66s.32-.58.53-.6a18.36,18.36,0,0,1,2.1,0Z"/><path d="M129.53,148.27l-1.61.24,0-.8,1.61-.08Z"/><path d="M145.78,83.15l-.37.23c-.23-.34-.64-.67-.66-1A36.15,36.15,0,0,0,140.21,67c-1.26-2.29-2.44-4.63-3.6-7a9.12,9.12,0,0,1-.48-1.74l.61-.19C141.15,65.92,145.8,73.68,145.78,83.15Z"/><path d="M135.45,71.59c-.73.83-1.42,1.69-2.19,2.48-2.22,2.28-4.26,4.69-5.14,7.85-.25.88-.48,1.77-.71,2.65l-.54,0a4.26,4.26,0,0,1-.2-1.33,18.71,18.71,0,0,1,7.62-11.5A1.39,1.39,0,0,1,135.45,71.59Z"/><path d="M133.38,83.24,128.72,94l-.3-.13A18.89,18.89,0,0,1,133.38,83.24Z"/><path d="M148.74,70.12l-5.1-2.58C145.32,66.31,148.34,67.81,148.74,70.12Z"/><path d="M143.45,109.17s0,0,0,0l-.05,0h0A0,0,0,0,0,143.45,109.17Z"/><path d="M144.63,109.25l-1.19-.09a4.79,4.79,0,0,1-.29-6.08,14,14,0,0,0,.06,3.17A15.47,15.47,0,0,0,144.63,109.25Z"/><path d="M142.1,101.72c-.35,2-.7,4.07-1,6.07C139.57,107.06,140.16,103.2,142.1,101.72Z"/><path d="M148.33,74.28c-1-.8-1.92-1.53-2.81-2.32-.18-.16-.3-.71-.19-.81a1.17,1.17,0,0,1,.94-.32A3.09,3.09,0,0,1,148.33,74.28Z"/></svg>