<svg id="Layer_1" data-name="Layer 1" xmlns="http://www.w3.org/2000/svg" viewBox="0 0 192.37 181.84"><circle cx="98.33" cy="90.92" r="77.08" fill="#f6f6ca"/><path d="M48.62,39.94Q42,36.25,36.58,33l7,7q.9.9,3.22,2.9c1.67,1.48,2.72,2.44,3.18,2.9a.55.55,0,0,1,.09.57,1.4,1.4,0,0,1-.39.67c-.31.3-.57.33-.8.1l-.57-.66-.85-1c-.76-.75-2-1.91-3.72-3.48s-2.8-2.56-3.15-2.92l-2.73-2.75c-.44-.44-1.07-1.12-1.9-2s-1.32-1.5-1.87-2.06L34,32.21c-.71-.72-.91-1.23-.59-1.55s.73-.1,1.64.24a61.2,61.2,0,0,1,7.31,3.75c1.95,1.14,4.41,2.64,7.38,4.52l1.82,1.14.13.09Q49.57,38.32,48,36.62L44.3,32.84,38,26.49a.85.85,0,0,1,.16-1.22c.38-.39.85-.3,1.41.26l.13.13a2,2,0,0,0,.48.75q1.3,1.31,3.86,4t3.9,4.06L54.44,41a1.82,1.82,0,0,1,.46.84.71.71,0,0,1-.13.74Q54.35,43,48.62,39.94Z" fill="#231f20"/><path d="M61.05,37.18a.87.87,0,0,1-.74-.44,27.06,27.06,0,0,0-2.08-2.29L57.75,34l-2.67,1.43c.18.45.6,1.3,1.27,2.57a4.16,4.16,0,0,1,.71,1.92.71.71,0,0,1-.32.58,1.11,1.11,0,0,1-.67.21.66.66,0,0,1-.57-.27l0-.15,0-.12a135.05,135.05,0,0,0-6.76-14.1c0-.07-.12-.18-.22-.35s-.24-.4-.45-.7c-.39-.63-.7-1.15-.91-1.55a2.38,2.38,0,0,1-.31-1l.82-.61a1.35,1.35,0,0,1,.7-.28.64.64,0,0,1,.58.27,52.55,52.55,0,0,0,4.6,5.1,60.71,60.71,0,0,1,4.39,4.87,7,7,0,0,0,.68.67,6.66,6.66,0,0,1,.67.63,16.23,16.23,0,0,0,1.33,1.28,13.06,13.06,0,0,1,1.34,1.34v0a.79.79,0,0,1,.12,1A2,2,0,0,1,61.05,37.18Zm-4.86-4.75a63.51,63.51,0,0,0-4.56-5.29L49.51,24.8q3.21,6.47,5,9.67a7.75,7.75,0,0,0,2.43-1.2A5.94,5.94,0,0,1,56.19,32.43Z" fill="#231f20"/><path d="M64.6,34.29l-.62-1c-.19-.29-.39-.61-.61-1l-.49-.9q-.26-.24-3.75-5.49c-2.34-3.49-3.82-5.74-4.46-6.75a5.52,5.52,0,0,1-2.12.83.69.69,0,0,1-.56-.3.56.56,0,0,1,0-.54,1.18,1.18,0,0,1,.46-.5,20.41,20.41,0,0,1,1.84-.94,16.85,16.85,0,0,0,1.85-.91l.21-.13.21-.12c.54-.32.93-.26,1.17.15a.67.67,0,0,1,0,.66,1.08,1.08,0,0,1-.48.55,5.07,5.07,0,0,1-.73.32l-.58.2,0,.15.05.15c.91,1.54,2.51,3.93,4.8,7.14q3.23,4.53,4.77,7.17a.83.83,0,0,1,0,.71,1,1,0,0,1-.48.59Z" fill="#231f20"/><path d="M70.73,31.73a2.49,2.49,0,0,1-1.23-.47,7.83,7.83,0,0,1-2-2.26A22.49,22.49,0,0,1,66,26q-1.38-3-3.26-7.3l-1-2.12a5.68,5.68,0,0,1-.27-.55c-.34-.68-.54-1.1-.61-1.25,0-.46.11-.74.33-.83s.5,0,.82.24a2.48,2.48,0,0,1,.73,1L66,22.74c.32.74.81,1.69,1.46,2.85.79,1.47,1.28,2.42,1.48,2.86.59,1.37,1.47,1.8,2.64,1.3q2-.87-4.48-15.8l-.68-1.56-.1-.25a.69.69,0,0,1-.13-.21.74.74,0,0,1-.06-.55c.06-.15.24-.28.53-.41a.81.81,0,0,1,.66,0,1,1,0,0,1,.48.37,4.87,4.87,0,0,1,.3.63c.13.29.31.78.53,1.45a13.22,13.22,0,0,0,.49,1.44A10.24,10.24,0,0,1,69.6,16l.45,1.19.1.22a1.36,1.36,0,0,1,.13.24Q75.63,30,72.05,31.51A2.71,2.71,0,0,1,70.73,31.73Z" fill="#231f20"/><path d="M81.38,26.75a16.31,16.31,0,0,1-1.82-2.84l-.5-.93q-2.07-3.9-2.47-4.41l-.35.1c.17.57.31,1.08.43,1.55l.47,1.6a27.22,27.22,0,0,0,2.35,5.9l-.09.87-.81.25-.51-.33-.54-2c-.52-1.74-1.39-4.36-2.61-7.84Q73,13.13,72.35,10.86c-.27-.92-.09-1.48.55-1.67a4.11,4.11,0,0,1,2.8.05,2.84,2.84,0,0,1,1.67,2l.61,2a4.89,4.89,0,0,1,.15,1,5.06,5.06,0,0,1,0,1l-.24,1.21-.21,1,.35.65,1,1.94q1.06,2.12,1.86,3.39a14,14,0,0,0,1.67,2.25l.28.3a2.32,2.32,0,0,1,.56.84.83.83,0,0,1,0,.56.57.57,0,0,1-.4.35C82.53,27.92,82,27.57,81.38,26.75ZM76.5,15.14a9.25,9.25,0,0,0-.33-2.79,6.35,6.35,0,0,0-.75-1.67,1.44,1.44,0,0,0-.69-.57,1.38,1.38,0,0,0-.9,0v.16l0,.28L74.91,14c.33,1,.68,2.08,1,3.26A2.94,2.94,0,0,0,76.5,15.14Z" fill="#231f20"/><path d="M85.72,26.83a.91.91,0,0,1-.45-.6l-.13-.77-.1-.6a5.32,5.32,0,0,1-.14-.62c-.07-.42-.21-1-.41-1.89l-.39-1.9c-.16-1-.38-2.43-.65-4.37-.22-1.75-.42-3.21-.62-4.38a12.11,12.11,0,0,0-.31-1.23c-.15-.57-.25-1-.3-1.24C82,7.81,82.28,7,83.11,6.9a8,8,0,0,1,2.35,0c.91.12,1.4.35,1.46.71a.78.78,0,0,1-.16.59,1.8,1.8,0,0,1-.55.51,13.1,13.1,0,0,0-2.36-.21c.07.3.15.72.24,1.28.14.79.25,1.51.34,2.15.1,1,.19,1.69.28,2.16l.17.47.47-.12c.15,0,.35-.09.59-.13,1-.16,1.48,0,1.57.59a.71.71,0,0,1-.17.6,1.05,1.05,0,0,1-.65.34,5.47,5.47,0,0,1-.84.09L85.1,16c.13.51.28,1.26.45,2.26s.31,1.89.42,2.69c.15,1.22.27,2.13.38,2.73a9.27,9.27,0,0,0,.34,1.66l1-.2c.33-.07.74-.16,1.22-.24.75-.12,1.17,0,1.25.53a.71.71,0,0,1-.26.7,1.78,1.78,0,0,1-.87.38L86.47,27A1,1,0,0,1,85.72,26.83Z" fill="#231f20"/><path d="M101.41,25v-.09a21.31,21.31,0,0,0-.49-3.58c-.28-1.32-.69-2.91-1.25-4.77-.42-1.4-.77-2.66-1-3.77l-.21,11.92a1.24,1.24,0,0,1-.17.71.81.81,0,0,1-.66.21.72.72,0,0,1-.57-.24.79.79,0,0,1-.2-.59v-.24l.22-8.9q.12-3.93.21-8.86L97.3,3.1a.66.66,0,0,1,.16-.5,1,1,0,0,1,.64-.12,3.32,3.32,0,0,1,1.38.31,3.23,3.23,0,0,1,1.08.82,5.25,5.25,0,0,1,1.17,2.56,7.43,7.43,0,0,1,.09,1.39,6.08,6.08,0,0,1-.09,1c-.06.36-.1.6-.12.7a8,8,0,0,1-.28.9c-.15.4-.25.66-.29.78l-.38.84-.31.78a14.72,14.72,0,0,0,.33,2.76c.21,1.12.45,2.15.72,3.1.19.67.53,1.79,1,3.35l.83,2.68v.06a3.55,3.55,0,0,1-.11.87.57.57,0,0,1-.64.48C102.13,25.85,101.76,25.57,101.41,25ZM99.63,10.28l.5-2.59a2.31,2.31,0,0,0,0-.43,7.33,7.33,0,0,0-.29-2,3.37,3.37,0,0,0-.46-.93.92.92,0,0,0-.58-.42l-.11,3c-.09,1.35-.13,2.4-.15,3.14s0,1.17,0,1.39A12.31,12.31,0,0,0,99.63,10.28Z" fill="#231f20"/><path d="M105.05,25.93a1,1,0,0,1-.26-.7l.11-.78.07-.6q0-.27.06-.63c0-.42.11-1.07.16-1.94l.19-1.92c.13-1,.35-2.44.67-4.37.31-1.73.54-3.19.69-4.37a10.89,10.89,0,0,0,.08-1.27c0-.59,0-1,.08-1.27.18-1.42.7-2.08,1.54-2a7.83,7.83,0,0,1,2.24.69c.84.37,1.23.74,1.18,1.1a.74.74,0,0,1-.33.52,1.69,1.69,0,0,1-.66.32,12.48,12.48,0,0,0-2.2-.9c0,.31-.07.74-.14,1.3-.11.8-.22,1.52-.32,2.15-.18,1-.31,1.67-.37,2.15l0,.49.49,0a3.61,3.61,0,0,1,.6,0c1,.12,1.41.47,1.33,1a.71.71,0,0,1-.34.52,1.07,1.07,0,0,1-.72.13,4.37,4.37,0,0,1-.83-.17l-.75-.1c0,.53-.11,1.29-.24,2.29s-.26,1.9-.39,2.69c-.22,1.22-.37,2.12-.45,2.72a9.81,9.81,0,0,0-.16,1.69l1,.1,1.23.13q1.14.15,1.05.87a.73.73,0,0,1-.46.6,1.73,1.73,0,0,1-1,.1l-2.55-.33A1.1,1.1,0,0,1,105.05,25.93Z" fill="#231f20"/><path d="M113.52,27.41a2,2,0,0,1-1.07.05.78.78,0,0,1-.53-.46,1,1,0,0,1-.09-.72c.4-1.65,1-3.82,1.81-6.53q1.26-4.35,1.78-6.52l0-.2c.19-1.26.35-2.2.5-2.81.46-1.86,1-2.71,1.71-2.54a.79.79,0,0,1,.56.91c-.06.24-.18.61-.36,1.1a9.55,9.55,0,0,0-.36,1.1c-.33,1.31-.61,2.5-.84,3.56s-.52,2.22-.84,3.53a4,4,0,0,0-.44,1.2l-.09.36-.63,2.3q-.3,1-.63,2.34c-.33,1.35-.17,2.11.47,2.27l.2,0,.37.07c.18,0,.41.07.68.14,1.06.26,1.52.68,1.38,1.27a.62.62,0,0,1-.39.43,1.39,1.39,0,0,1-.71.11A8.45,8.45,0,0,0,113.52,27.41Z" fill="#231f20"/><path d="M120.08,29.29a3.66,3.66,0,0,1-.54-1.65,11.86,11.86,0,0,1,.41-4.15,31.32,31.32,0,0,1,1.15-3.8c.09-.23.17-.41.24-.55l.2-.51c0-.1,0-.15,0-.16l.2-.5.78-2c.25-.6.69-1.53,1.32-2.8a10.61,10.61,0,0,1,1.65-2.39,2.47,2.47,0,0,1,.84-.67,1.11,1.11,0,0,1,.82,0,5.2,5.2,0,0,1,1.88,1.18A4.58,4.58,0,0,1,130.14,13a6.74,6.74,0,0,1,.3,2.1,11.2,11.2,0,0,1-.27,2.41,19.19,19.19,0,0,1-.78,2.58l-.09.23q-.33.87-.57,1.59l-.59,1.62q-3.09,8.16-6.88,6.71A2.35,2.35,0,0,1,120.08,29.29Zm2.6-.31a2.7,2.7,0,0,0,1.08-.87,11.86,11.86,0,0,0,1.83-2.86c.46-.93.82-1.74,1.09-2.44s.68-2,1.07-3.41.79-2.6,1.07-3.32l.19-.51a3.27,3.27,0,0,0,0-2.14A2.22,2.22,0,0,0,127.67,12a1.38,1.38,0,0,0-1.69.62,8.26,8.26,0,0,0-1.14,2.16c-.14.36-.24.66-.32.91l-.29.77-.55,1.28c-.19.38-.37.81-.55,1.28-.39,1-.74,2-1.07,3.06a26.94,26.94,0,0,0-1,4.34c-.23,1.51,0,2.38.53,2.6A1.39,1.39,0,0,0,122.68,29Z" fill="#231f20"/><path d="M131.18,34.38a.86.86,0,0,1,.08-.85,26.78,26.78,0,0,0,1.19-2.86l.19-.62-2.42-1.81c-.33.35-.92,1.1-1.79,2.24A4.22,4.22,0,0,1,127,31.94a.71.71,0,0,1-.66-.05,1,1,0,0,1-.48-.51.69.69,0,0,1,0-.64l.13-.1.08-.1A134,134,0,0,0,136,18.45l.22-.34c.1-.16.26-.4.44-.71.41-.63.75-1.12,1-1.48a2.3,2.3,0,0,1,.78-.72l.91.49a1.29,1.29,0,0,1,.54.52.6.6,0,0,1,0,.63,56,56,0,0,0-2.67,6.33,59.2,59.2,0,0,1-2.55,6,6,6,0,0,0-.31.9,5.53,5.53,0,0,1-.3.87c-.06.12-.26.7-.59,1.74a13.29,13.29,0,0,1-.64,1.78l0,0a.8.8,0,0,1-.82.52A2,2,0,0,1,131.18,34.38ZM133.42,28a63.28,63.28,0,0,0,2.86-6.36l1.22-2.91q-4.5,5.64-6.65,8.62A7.68,7.68,0,0,0,133,29,6.34,6.34,0,0,1,133.42,28Z" fill="#231f20"/><path d="M135.87,32.71l2.82-3.86q1.25-1.71,2.78-3.85.56-.8,1.59-2.55t1.44-2.28a.93.93,0,0,1,.67-.38,1.11,1.11,0,0,1,.77.18,4.68,4.68,0,0,1,1.39,1.57,5.39,5.39,0,0,1,.65,2.08,9.39,9.39,0,0,1-.62,4.53,10,10,0,0,1-1.06,2c-.15.21-.3.4-.44.57l-.5.65-1,1.35a28.39,28.39,0,0,1-1.87,2.42,9.14,9.14,0,0,1-2.13,1.79,6.92,6.92,0,0,1-2.74.84,8.89,8.89,0,0,1-1.66-.07l-1.78-1.26C133.78,36.09,134.34,34.86,135.87,32.71Zm1.42,3.59a2.87,2.87,0,0,0,1.21-.19,6.2,6.2,0,0,0,1.17-.68,9.11,9.11,0,0,0,1.14-1,18.65,18.65,0,0,0,1.89-2.07c.15-.19.37-.47.63-.85q5.31-7.44,2.65-9.82a20,20,0,0,0-2,2.44c-.74,1-2,2.89-3.66,5.57q-2.26,3.54-3.71,5.57l-.42.59A2.15,2.15,0,0,0,137.29,36.3Z" fill="#231f20"/><path d="M141.21,41.65a1,1,0,0,1,.19-.73l.53-.58.41-.44a5.32,5.32,0,0,1,.41-.49c.29-.32.7-.81,1.24-1.49l1.27-1.47q1-1.1,3.05-3.19c1.24-1.24,2.27-2.3,3.07-3.18a11.36,11.36,0,0,0,.8-1,12.34,12.34,0,0,1,.79-1c1-1.06,1.76-1.3,2.39-.73a8.22,8.22,0,0,1,1.44,1.86c.47.78.58,1.31.33,1.58a.79.79,0,0,1-.56.24,1.92,1.92,0,0,1-.74-.12,12.18,12.18,0,0,0-1.28-2c-.19.23-.48.56-.86,1-.55.59-1,1.12-1.49,1.58-.7.67-1.22,1.19-1.54,1.55l-.26.41.37.31a5.24,5.24,0,0,1,.47.38c.71.66.88,1.19.5,1.61a.7.7,0,0,1-.58.23,1,1,0,0,1-.67-.3,4.3,4.3,0,0,1-.58-.62l-.56-.51c-.32.41-.83,1-1.51,1.73s-1.3,1.41-1.86,2c-.88.87-1.52,1.52-1.93,2a8.83,8.83,0,0,0-1.1,1.29l.76.65c.26.22.57.49.93.82.57.52.68.95.36,1.31a.71.71,0,0,1-.72.22,1.75,1.75,0,0,1-.83-.45l-1.9-1.74A1.09,1.09,0,0,1,141.21,41.65Z" fill="#231f20"/><path d="M149,43.7l3.68-3.05c1.09-.9,2.31-1.92,3.64-3.06.49-.42,1.22-1.11,2.17-2.08s1.71-1.65,2-1.86a1,1,0,0,1,.75-.19,1,1,0,0,1,.7.36,4.47,4.47,0,0,1,1,1.86,5.44,5.44,0,0,1,.13,2.17,9.36,9.36,0,0,1-1.72,4.24,8.78,8.78,0,0,1-1.51,1.64q-.3.26-.57.45l-.64.51-1.27,1.07a28.37,28.37,0,0,1-2.41,1.89,9.55,9.55,0,0,1-2.5,1.21,6.88,6.88,0,0,1-2.87.13,8,8,0,0,1-1.59-.47l-1.41-1.66Q146,46.26,149,43.7Zm.49,3.82a2.81,2.81,0,0,0,1.23.11,5.73,5.73,0,0,0,1.3-.36,11.1,11.1,0,0,0,1.34-.64,18.48,18.48,0,0,0,2.33-1.55c.2-.15.48-.37.83-.67q7-5.91,5-8.87A20.49,20.49,0,0,0,159,37.42q-1.46,1.23-4.92,4.49-3.08,2.9-5,4.5l-.55.47A2.09,2.09,0,0,0,149.51,47.52Z" fill="#231f20"/><path d="M58.13,168.26a.66.66,0,0,1,0-.55l1.37-2.55c.64-1.12,1.11-2,1.4-2.53a19.36,19.36,0,0,0,.93-2.41,15.6,15.6,0,0,1,.91-2.44,12,12,0,0,0,.89-2.46,21.39,21.39,0,0,0,.54-2.88,19.35,19.35,0,0,1,.54-2.82,12.16,12.16,0,0,1,.88-2.44A.4.4,0,0,1,66,147a.88.88,0,0,1,.51.09c.2.1.28.4.25.9a11.63,11.63,0,0,1-.38,2.25c-.23.93-.37,1.49-.42,1.66l-.59,2-.33,1.3a10.77,10.77,0,0,0,.7-1c.86-1.42,1.62-2.57,2.27-3.46a7.83,7.83,0,0,1,1.22-1.32c.37-.3.68-.39.93-.26.48.24.67.45.58.63a25.2,25.2,0,0,1-2.92,4.13A26.68,26.68,0,0,0,64.89,158l-.27.4a2,2,0,0,0-.27.46l-.22.43q-.58,1.14-1.71,3.54l-1.75,3.56-.26.64-.28.66-.34.67a.78.78,0,0,1-.54.4,1,1,0,0,1-.75-.1A.73.73,0,0,1,58.13,168.26Z" fill="#231f20"/><path d="M67.05,172.22a3.68,3.68,0,0,1-.56-1.62,12,12,0,0,1,.36-4.09,30.17,30.17,0,0,1,1.09-3.76,4.6,4.6,0,0,1,.23-.55l.19-.51c0-.09,0-.14,0-.15l.19-.5.74-1.95c.24-.59.66-1.52,1.27-2.77a10.08,10.08,0,0,1,1.6-2.37,2.29,2.29,0,0,1,.81-.67,1,1,0,0,1,.81,0,5.22,5.22,0,0,1,1.87,1.14,4.66,4.66,0,0,1,1.1,1.69,6.87,6.87,0,0,1,.32,2.07,10.86,10.86,0,0,1-.24,2.38,18.46,18.46,0,0,1-.74,2.55l-.08.22c-.21.58-.4,1.11-.55,1.58l-.55,1.61q-3,8.06-6.71,6.69A2.36,2.36,0,0,1,67.05,172.22Zm2.56-.34a2.63,2.63,0,0,0,1-.87,11.76,11.76,0,0,0,1.77-2.84c.44-.92.79-1.72,1-2.41.31-.84.65-2,1-3.38s.75-2.57,1-3.28l.18-.5a3.24,3.24,0,0,0,0-2.11,2.17,2.17,0,0,0-1.33-1.38,1.36,1.36,0,0,0-1.66.63,8.29,8.29,0,0,0-1.1,2.14c-.13.36-.23.66-.3.91l-.27.75-.53,1.27c-.18.38-.36.8-.53,1.27-.37,1-.7,2-1,3A25.92,25.92,0,0,0,68,169.4c-.2,1.49,0,2.34.56,2.55A1.39,1.39,0,0,0,69.61,171.88Z" fill="#231f20"/><path d="M78.7,175.86a2.48,2.48,0,0,1-.72-1.08,7.59,7.59,0,0,1-.31-3,22.19,22.19,0,0,1,.47-3.26c.39-2.11.9-4.68,1.55-7.71l.44-2.26a5.07,5.07,0,0,1,.1-.59c.12-.74.19-1.19.23-1.35.26-.37.5-.53.74-.48s.4.27.51.66a2.39,2.39,0,0,1,0,1.19L80.07,166a28.2,28.2,0,0,0-.45,3.13c-.21,1.62-.36,2.67-.45,3.14-.31,1.43.15,2.28,1.38,2.54q2.1.45,5.42-15.24l.35-1.64.05-.26a1.15,1.15,0,0,1,0-.24.75.75,0,0,1,.27-.48.93.93,0,0,1,.66,0,.8.8,0,0,1,.55.34.93.93,0,0,1,.17.57,4.2,4.2,0,0,1-.11.68c-.06.31-.2.8-.4,1.47a10.89,10.89,0,0,0-.43,1.43,10.46,10.46,0,0,1-.31,1.18l-.32,1.22,0,.23a.86.86,0,0,1,0,.27q-2.75,12.94-6.51,12.15A2.64,2.64,0,0,1,78.7,175.86Z" fill="#231f20"/><path d="M95.79,177.77a.81.81,0,0,1-.43-.74c.43-.44.63-1.6.61-3.49,0-1.14-.11-2.78-.31-4.95s-.34-3.69-.35-4.89l0-1.64c0-.47,0-1,0-1.64a10.52,10.52,0,0,0-.32-2.11,8.4,8.4,0,0,1-.38-1.87c0-.7.75-1.06,2.28-1.07h.45a4.26,4.26,0,0,1,2.81,1,6.34,6.34,0,0,1,1.64,2.4,14.59,14.59,0,0,1,.8,3c.13,1.11.2,2,.21,2.62v2.36a.42.42,0,0,0,0,.24,1.6,1.6,0,0,0,0,.36,1.12,1.12,0,0,1,0,.29,11,11,0,0,1-.26,2.29,17.07,17.07,0,0,1-.79,2.7,11.51,11.51,0,0,1-3,4.68,3.25,3.25,0,0,1-2,.8A1.94,1.94,0,0,1,95.79,177.77Zm3.56-3.48a10.28,10.28,0,0,0,1.25-2.89,22,22,0,0,0,.75-5.91A23,23,0,0,0,101,162a8,8,0,0,0-1.44-3.33,3.52,3.52,0,0,0-1.29-1.1,3.78,3.78,0,0,0-1.77-.39v0c0,1.79.16,4.49.43,8.11s.43,6.31.45,8.16l0,2.84A6.4,6.4,0,0,0,99.35,174.29Z" fill="#231f20"/><path d="M108.78,177.45a1,1,0,0,1-.43-.6l-.11-.77-.08-.59a6,6,0,0,1-.12-.61c-.06-.42-.18-1-.36-1.88l-.32-1.88c-.14-1-.32-2.41-.53-4.32-.16-1.73-.33-3.17-.49-4.33q-.06-.41-.27-1.23a11.62,11.62,0,0,1-.26-1.22c-.2-1.4.11-2.16.94-2.28a8,8,0,0,1,2.31.07c.89.13,1.36.38,1.41.73a.76.76,0,0,1-.17.58,2,2,0,0,1-.55.49,12.44,12.44,0,0,0-2.32-.28c.06.3.13.72.21,1.27q.17,1.18.27,2.13c.07,1,.15,1.66.21,2.14l.16.46.47-.1a4.66,4.66,0,0,1,.58-.11c1-.14,1.46.07,1.54.62a.7.7,0,0,1-.19.59,1.05,1.05,0,0,1-.65.31,4.63,4.63,0,0,1-.83.06l-.74.11c.11.5.24,1.25.38,2.23s.25,1.87.35,2.66c.11,1.21.21,2.11.29,2.7a9.81,9.81,0,0,0,.29,1.65l1-.17c.34-.07.74-.14,1.21-.2.75-.11,1.16.07,1.22.54a.7.7,0,0,1-.28.69,1.72,1.72,0,0,1-.86.35l-2.51.36A1.1,1.1,0,0,1,108.78,177.45Z" fill="#231f20"/><path d="M120.24,175.36a4.16,4.16,0,0,1-1.19-.14c-1.5-.5-2.73-2.59-3.68-6.29l-.2-.78-.23-.9-.17-.69q-.3-1.16-.51-2.07t-.39-2a13.29,13.29,0,0,1-.21-1.9,10,10,0,0,1,.17-1.75,3.73,3.73,0,0,1,.52-1.52,4.85,4.85,0,0,1,2.82-1.89,1,1,0,0,1,.72,0,.65.65,0,0,1,.36.46.87.87,0,0,1,0,.57.69.69,0,0,1-.38.37l-1.36.35a1.27,1.27,0,0,0-.83,1,5.5,5.5,0,0,0-.12,2,21,21,0,0,0,.51,3.56l0,.14.65,2.79q.27,1.26.66,2.82a14.55,14.55,0,0,0,.55,1.76,5.64,5.64,0,0,0,.93,1.61,2.19,2.19,0,0,0,1.48.82,2.65,2.65,0,0,0,1-.07,1.05,1.05,0,0,0,.57-.39,1.06,1.06,0,0,1,.66,0,.54.54,0,0,1,.37.41c.19.75-.24,1.26-1.3,1.53A5.1,5.1,0,0,1,120.24,175.36Z" fill="#231f20"/><path d="M125.37,172.7q-.24-.67.63-1l.31-.11.29-.08a.33.33,0,0,0,.25-.25,1.16,1.16,0,0,0-.1-.54c-.11-.31-.31-.8-.59-1.46q-.33-.65-1.08-2.34c-1.21-2.8-2.08-4.92-2.61-6.38-.19-.52-.35-1-.49-1.44l-.49-1.44a11.49,11.49,0,0,0-.65-1.51,3.07,3.07,0,0,1-.6.35.64.64,0,0,1-.92-.43.76.76,0,0,1,.21-.74,3.31,3.31,0,0,1,.93-.75,10.89,10.89,0,0,1,1.91-1,.84.84,0,0,1,.66,0,.82.82,0,0,1,.44.46.88.88,0,0,1,0,.6.61.61,0,0,1-.38.39.93.93,0,0,1-.29.07l-.23.09a.62.62,0,0,0-.36.27.68.68,0,0,0,0,.51q1,2.72,3.31,8.06c.28.66.72,1.62,1.31,2.88.4.83.77,1.69,1.1,2.59l.38,1.06a3.79,3.79,0,0,1,.55-.23c.79-.29,1.3-.1,1.54.55l.06.17-.53.73-.17.08c-.1.05-.29.12-.57.22-.59.26-1,.42-1.13.48C126.49,173.24,125.58,173.26,125.37,172.7Z" fill="#231f20"/><path d="M132.69,166.86l-2-4.24c-.61-1.25-1.29-2.65-2.06-4.2-.29-.57-.78-1.43-1.48-2.57s-1.17-2-1.31-2.3a.88.88,0,0,1,0-.76,1,1,0,0,1,.5-.59,4.61,4.61,0,0,1,2-.48,5.34,5.34,0,0,1,2.11.39,9.42,9.42,0,0,1,4.86,4.48,6.94,6.94,0,0,1,.29.65l.34.74.73,1.47c.56,1.13,1,2.05,1.23,2.74a9.27,9.27,0,0,1,.57,2.69,6.88,6.88,0,0,1-.55,2.77,8.82,8.82,0,0,1-.83,1.41l-1.92,1Q134.43,170.37,132.69,166.86Zm3.78.44a2.92,2.92,0,0,0,.4-1.15,6.12,6.12,0,0,0-.05-1.32,9,9,0,0,0-.29-1.44,17.93,17.93,0,0,0-.93-2.6c-.09-.22-.24-.54-.44-.95q-4-8.06-7.31-6.85a19.31,19.31,0,0,0,1.2,2.87c.55,1.12,1.6,3,3.13,5.76,1.36,2.42,2.4,4.35,3.13,5.81l.31.64A2,2,0,0,0,136.47,167.3Z" fill="#231f20"/><path d="M145.15,164.45a.94.94,0,0,1-.65-.35l-.43-.65-.33-.5a3.82,3.82,0,0,1-.37-.5c-.23-.35-.61-.86-1.13-1.54l-1.11-1.56q-.81-1.22-2.33-3.67c-.89-1.49-1.67-2.72-2.31-3.69-.16-.23-.41-.56-.77-1a10.89,10.89,0,0,1-.77-1c-.78-1.17-.83-2-.13-2.45a8.16,8.16,0,0,1,2.11-1c.87-.26,1.4-.24,1.6.06a.75.75,0,0,1,.09.6,1.87,1.87,0,0,1-.29.67,11.82,11.82,0,0,0-2.21.76c.18.23.42.59.73,1.05q.66,1,1.17,1.8c.47.83.85,1.44,1.11,1.84l.34.35.38-.29a5,5,0,0,1,.48-.36c.79-.53,1.35-.56,1.65-.09a.7.7,0,0,1,.09.6,1,1,0,0,1-.45.57,3.86,3.86,0,0,1-.73.41l-.62.42c.32.4.75,1,1.3,1.85s1,1.58,1.47,2.25c.62,1,1.09,1.81,1.42,2.31a8.35,8.35,0,0,0,1,1.36l.8-.57c.27-.21.6-.44,1-.7.63-.42,1.08-.43,1.34,0a.7.7,0,0,1,0,.74,1.64,1.64,0,0,1-.63.69l-2.11,1.41A1.07,1.07,0,0,1,145.15,164.45Z" fill="#231f20"/><path d="M137.12,103.69c-.19-1.39-.15-2.84-1.28-3.94-.12-.11-.08-.39-.09-.6a5,5,0,0,0-2.81-4.41c-.29-.15-.69-.28-.8-.53-.77-1.82-2-3.5-1.32-5.72.33-1,.21-2.11.53-3.09a12.15,12.15,0,0,0,.56-5.74c-.28-1.76-1-3.48-.62-5.33a1,1,0,0,0-.21-.66c-.57-.94-1.15-1.87-1.76-2.78-1-1.41-1.92-2.83-2.92-4.21a12,12,0,0,0-2.81-3c-2.18-1.53-4.58-2.85-6.08-5.21-.25-.39-4.59-.85-6.17-.59a11,11,0,0,0-6.53,3.37c-.3-1.78-.59-3.56-.94-5.32a1,1,0,0,0-.28-.44.55.55,0,0,0-.68-.08,1.11,1.11,0,0,0-.46.45c-.39,1.13-.69,2.29-1.11,3.74-.4-.64-.72-1.06-1-1.52-1.27-2.35-2.44-4.8-4.53-6.53a52.53,52.53,0,0,0-5.44-3.81,3.43,3.43,0,0,0-2-.53,75.65,75.65,0,0,0-7.67.89c-9.28,1.79-17,6.52-23.53,13.16-3.3,3.34-5.41,7.23-5.43,12.05a3.34,3.34,0,0,0,.13.66,1.53,1.53,0,0,0,.34-.08A28.43,28.43,0,0,1,60,71.19c3.63-.73,7.28-1.35,10.88-2.17A28.08,28.08,0,0,0,79,65.87a79.57,79.57,0,0,0,6.69-4.33c2.4-1.78,4.63-3.78,6.91-5.72a2.42,2.42,0,0,1,3.59.46,33.57,33.57,0,0,1,5.22,17.11c.16,3.28.41,6.57.66,9.85.16,2.12.46,4.24.57,6.36.13,2.79.14,5.58.19,8.37,0,1,0,2.07,0,3.1a21.2,21.2,0,0,1-.1,2.65c-.2,1.49-.54,3-.77,4.44-.44,2.89-.88,5.78-1.26,8.68a15.61,15.61,0,0,1-2,5.76,20.78,20.78,0,0,0-2-1c-1.22-.48-1.79-.22-2.38.94a3.13,3.13,0,0,1-3,1.43c-.58-.09-1.46-.14-1.73.18a2.66,2.66,0,0,1-1.86.8,9.8,9.8,0,0,0-1.75.53c-.14.06-.19.39-.21.6,0,0,.29.21.41.18,1.22-.3,2.43-.64,3.65-.95a2.69,2.69,0,0,1,.85-.06c.52,0,1.15.34,1.56.14,1.31-.64,2.92-.9,3.65-2.58.53.36,1.13.57,1.42,1,1.2,1.72,3.07,1.88,4.86,2.12a2.89,2.89,0,0,0,2-.7c1.57-1.43,1.42-.76,2.45.27.1.1.12.31.23.37.34.18.76.51,1,.44a6.24,6.24,0,0,1,4.14.55,9.62,9.62,0,0,0,5.26.92c.58-.1,1.18,0,1.75-.13a6.4,6.4,0,0,0,1.25-.58c-.33-.29-.62-.76-1-.83a20.45,20.45,0,0,0-2.22-.05,13.09,13.09,0,0,1-2.67-.32c-1.83-.52-3.54-1.55-5.54-1.29a1.21,1.21,0,0,1-1.38-.81,1.8,1.8,0,0,0-1.45-1.15c-.57-.11-1.15-.17-1.79-.27a3.62,3.62,0,0,1,0-.55,23.68,23.68,0,0,1,.84-2.67c1.1-2.53,1-5.23,1.24-7.88.13-1.62.36-3.23.52-4.84a37.87,37.87,0,0,0,.3-4c0-3.11-.18-6.22-.3-9.33-.09-2.34-.19-4.68-.34-7q-.44-6.78-.91-13.57a32,32,0,0,0-.34-3.53,8.33,8.33,0,0,1,.69-5.41c.49-1,1-1.9,2.41-1.84a13.42,13.42,0,0,0,2.29-.13,1.69,1.69,0,0,1,1.6.55c.42.44,1,1,1,1.51a5.67,5.67,0,0,0,1,3.15,11.05,11.05,0,0,1,.49,10.47c-.68,1.6-1.42,3.18-2,4.8s-1.05,3.15.36,4.61c.27.28.8.68.39,1.31a2,2,0,0,0,.09,2.33,4,4,0,0,1,.61,2.25c0,2.62.58,3.18,3.19,3.63,1,.17,2,.63,2.14,1.72a7,7,0,0,0,1.94,3.79c1.28,1.6,3,1.89,4.74,2.3a9.32,9.32,0,0,0,2.61-.13c0,.24,0,.51.06.77s.08.53.11.8a1.15,1.15,0,0,0,1.51,1.13,12.39,12.39,0,0,1,1.58-.26c.3,0,.85.12.88.28a2.9,2.9,0,0,1,0,1.52c-.08.23-.65.37-1,.38-.5,0-1.05-.21-1.26.46a1.09,1.09,0,0,0,1,1.3,21.18,21.18,0,0,0,2.39,0,2.93,2.93,0,0,0,3-2.76.06.06,0,0,0,0,0c.05-.33.07-.64.09-.93a9.7,9.7,0,0,0,0-1.32l0-.8a5.37,5.37,0,0,0,0-.7ZM95.3,53.35c-2.61-.12-4.31,1.44-6.06,3.08A67.21,67.21,0,0,1,84,60.72c-1.55,1.18-3.28,2.16-4.78,3.4a16.72,16.72,0,0,1-7.65,3.34c-3.9.78-7.82,1.5-11.7,2.38-2,.44-3.83,1.19-5.74,1.81-.25.08-.48.2-.79.32-.59-2,.1-3.63.89-5.29,1.36-2.87,3.7-4.93,6-6.92a82.44,82.44,0,0,1,8.07-5.93,29.87,29.87,0,0,1,10-4.11c2.61-.59,5.33-.75,7.92-1.41,2.25-.57,3.83.41,5.44,1.61l.2.18a.58.58,0,0,1,.07.11,28.52,28.52,0,0,0-3.76-.78,7,7,0,0,0-3.3.4c-4.68,2.23-9.35,4.5-13.89,7A45,45,0,0,0,60.5,65.08a.54.54,0,0,0-.18.42L64,62.73A97,97,0,0,1,82.09,52a11,11,0,0,1,9.1-.52c.9.37,1.85.63,2.76,1a14.26,14.26,0,0,1,1.47.72C95.33,53.31,95.31,53.35,95.3,53.35Zm10.36,38.26c.17,3.17.33,6.34.32,9.51,0,2.09-.34,4.18-.52,6.27-.11,1.12-.22,2.23-.32,3.35a40.15,40.15,0,0,1-1.66,9c-.25.75-.43,1.53-.62,2.29-.52,2.12-1.15,2.38-3.12,1.29.31-.61.6-1.24,1-1.83,1.54-2.69,1.22-5.78,1.89-8.66.75-3.21,1.12-6.52,1.62-9.79a15.83,15.83,0,0,0,0-1.95c.05-1.43.22-2.86.14-4.27-.21-4-.52-8-.81-11.94-.17-2.31-.39-4.61-.58-6.91-.29-3.45-.65-6.9-.83-10.36a62.22,62.22,0,0,1,.15-6.4A3.87,3.87,0,0,1,102.8,60a.2.2,0,0,1,.17-.12h0a.15.15,0,0,1,.16.11,27.1,27.1,0,0,1,.88,3.8c.2,2.06.12,4.15.24,6.22.14,2.51.36,5,.52,7.52C105.08,82.21,105.4,86.91,105.66,91.61Zm29.68,16.75h-.28c-.17-.61-.36-1.22-.51-1.84a2.05,2.05,0,0,0-2.77-1.7l-1.6.31c-.1-.6-.17-1.16-.28-1.7-.22-1.07-.76-1.31-1.78-.88a4.07,4.07,0,0,1-1.52.36c-.33,0-.65-.32-1-.5h0l0,0c-1.43.37-2.45-.28-3.59-1.09a3,3,0,0,1-1.41-2.56c-.11-2.53-1-3.51-3.43-3.89-1.79-.27-2.47-1.24-2.19-3.27a2.15,2.15,0,0,0-.42-2c-.34-.38-.69-.92,0-1.34l.57.78c.76-4.2,4-6.71,5.74-10.14a22.24,22.24,0,0,0-6.07,8.39,6.36,6.36,0,0,1-.67-1,4,4,0,0,1-.66-2.49c.33-2.53,1.61-4.63,2.43-6.94a13.1,13.1,0,0,0,.22-8.59,37.44,37.44,0,0,0-1.74-4.71,10.26,10.26,0,0,0-2.2-3.07,1.54,1.54,0,0,0-1-.33,29,29,0,0,1-3.23,0c.54-.24,1.06-.51,1.61-.72a7,7,0,0,1,4.33-.6A4.33,4.33,0,0,1,117,60.81a8,8,0,0,0,2.8,2.5A9.6,9.6,0,0,1,123,66.52a2.16,2.16,0,0,0,.69.69l-.39-1.27.22-.11c.6.75,1.2,1.51,1.81,2.26.35.44.68.9,1,1.32,1.83,2,3.49,4.13,4,7a30.44,30.44,0,0,1,.11,6.81,12.33,12.33,0,0,1-.81,2.5,11.21,11.21,0,0,0-.23,1.43,8.83,8.83,0,0,1-.31,1.94,2.11,2.11,0,0,0,.05,1.94,12.24,12.24,0,0,1,.89,2.11,5.12,5.12,0,0,0,2.32,3c1.59.85,2,2.41,2.56,3.87a13.3,13.3,0,0,1,.84,3.68A14.07,14.07,0,0,1,135.34,108.36Z"/><path d="M106,101.12c0,2.09-.34,4.18-.52,6.27-.11,1.12-.22,2.23-.32,3.35a40.15,40.15,0,0,1-1.66,9c-.25.75-.43,1.53-.62,2.29-.52,2.12-1.15,2.38-3.12,1.29.31-.61.6-1.24,1-1.83,1.54-2.69,1.22-5.78,1.89-8.66.75-3.21,1.12-6.52,1.62-9.79a15.83,15.83,0,0,0,0-1.95c.05-1.43.22-2.86.14-4.27-.21-4-.52-8-.81-11.94-.17-2.31-.39-4.61-.58-6.91-.29-3.45-.65-6.9-.83-10.36a62.22,62.22,0,0,1,.15-6.4A3.87,3.87,0,0,1,102.8,60a.2.2,0,0,1,.17-.12h0a.15.15,0,0,1,.16.11,27.1,27.1,0,0,1,.88,3.8c.2,2.06.12,4.15.24,6.22.14,2.51.36,5,.52,7.52.31,4.7.63,9.4.89,14.1C105.83,94.78,106,98,106,101.12Z" fill="#b0d235"/><path d="M95.42,53.17c-.09.14-.11.18-.12.18-2.61-.12-4.31,1.44-6.06,3.08A67.21,67.21,0,0,1,84,60.72c-1.55,1.18-3.28,2.16-4.78,3.4a16.72,16.72,0,0,1-7.65,3.34c-3.9.78-7.82,1.5-11.7,2.38-2,.44-3.83,1.19-5.74,1.81-.25.08-.48.2-.79.32-.59-2,.1-3.63.89-5.29,1.36-2.87,3.7-4.93,6-6.92a82.44,82.44,0,0,1,8.07-5.93,29.87,29.87,0,0,1,10-4.11c2.61-.59,5.33-.75,7.92-1.41,2.25-.57,3.83.41,5.44,1.61l.2.18a.58.58,0,0,1,.07.11,28.52,28.52,0,0,0-3.76-.78,7,7,0,0,0-3.3.4c-4.68,2.23-9.35,4.5-13.89,7A45,45,0,0,0,60.5,65.08a.54.54,0,0,0-.18.42L64,62.73A97,97,0,0,1,82.09,52a11,11,0,0,1,9.1-.52c.9.37,1.85.63,2.76,1A14.26,14.26,0,0,1,95.42,53.17Z" fill="#b0d235"/><path d="M135.73,103.75a13.3,13.3,0,0,0-.84-3.68c-.55-1.46-1-3-2.56-3.87a5.12,5.12,0,0,1-2.32-3,12.24,12.24,0,0,0-.89-2.11,2.11,2.11,0,0,1-.05-1.94,8.83,8.83,0,0,0,.31-1.94,11.21,11.21,0,0,1,.23-1.43,12.33,12.33,0,0,0,.81-2.5,30.44,30.44,0,0,0-.11-6.81c-.47-2.9-2.13-5-4-7-.37-.42-.7-.88-1-1.32-.61-.75-1.21-1.51-1.81-2.26l-.21.15c.13.41.25.82.38,1.23a2.16,2.16,0,0,1-.69-.69,9.6,9.6,0,0,0-3.13-3.21,8,8,0,0,1-2.8-2.5A4.33,4.33,0,0,0,114,58.92a7,7,0,0,0-4.33.6c-.55.21-1.07.48-1.61.72a29,29,0,0,0,3.23,0,1.54,1.54,0,0,1,1,.33,10.26,10.26,0,0,1,2.2,3.07,37.44,37.44,0,0,1,1.74,4.71,13.1,13.1,0,0,1-.22,8.59c-.82,2.31-2.1,4.41-2.43,6.94a4,4,0,0,0,.66,2.49,6.36,6.36,0,0,0,.67,1A22.24,22.24,0,0,1,120.94,79c-1.73,3.43-5,5.94-5.74,10.14l-.57-.78c-.72.42-.37,1,0,1.34a2.15,2.15,0,0,1,.42,2c-.28,2,.4,3,2.19,3.27,2.46.38,3.32,1.36,3.43,3.89a3,3,0,0,0,1.41,2.56c1.14.81,2.16,1.46,3.59,1.09l0,0h0a3.3,3.3,0,0,1-.19-4.19,9.31,9.31,0,0,0,0,2.18,10.94,10.94,0,0,0,1,2.07l-.83-.06h0c.33.18.65.5,1,.5a4.07,4.07,0,0,0,1.52-.36c1-.43,1.56-.19,1.78.88.11.54.18,1.1.28,1.7l1.6-.31a2.05,2.05,0,0,1,2.77,1.7c.15.62.34,1.23.51,1.84l.28,0A13.92,13.92,0,0,0,135.73,103.75ZM115.47,91.94l-.21-.09a13.06,13.06,0,0,1,3.42-7.32Zm13.8-16.46-3.51-1.77C126.92,72.86,129,73.89,129.27,75.48ZM118.6,78.21a12.85,12.85,0,0,0-3.55,5.41c-.17.61-.32,1.22-.49,1.83h-.37a3,3,0,0,1-.14-.92,13,13,0,0,1,5.26-7.93,1,1,0,0,1,.8-.11C119.61,77.07,119.13,77.66,118.6,78.21ZM124,101.46c-1-.51-.61-3.17.72-4.19C124.45,98.67,124.21,100.08,124,101.46Zm3-16.83c-.16-.24-.44-.47-.46-.71a24.87,24.87,0,0,0-3.13-10.6c-.87-1.58-1.68-3.19-2.48-4.81a5.9,5.9,0,0,1-.33-1.2l.42-.13c3,5.41,6.25,10.76,6.23,17.29Zm.07-7.87c-.12-.12-.2-.5-.13-.56a.81.81,0,0,1,.65-.23A2.14,2.14,0,0,1,129,78.35C128.31,77.8,127.66,77.3,127.05,76.76Z" fill="#a07d3b"/><path d="M98,128.36c-.5.61-.89.86-1.56.66a5.67,5.67,0,0,0-4.34,0,5.71,5.71,0,0,1-3.88.48,17.62,17.62,0,0,0-2.51,0c-.19,0-.37-.3-.56-.46.24-.16.49-.47.72-.46,1.42.07,2.84.22,4.26.3a1.62,1.62,0,0,0,.79-.29C93.16,127.31,95.47,127.44,98,128.36Z"/><path d="M84.43,126.08c-.31.18-.59.48-.91.53-1.37.24-2.75.44-4.13.58A3.17,3.17,0,0,1,78,127a.78.78,0,0,1-.39-.63c0-.2.43-.54.55-.5,1.86.67,3.69-.2,5.53,0,.23,0,.44.07.66.1Z"/><path d="M112.08,129.06c-.22.13-.43.36-.65.37-.9,0-1.81,0-2.72,0-.69,0-1.38-.1-2.07-.13s-1.18.05-1.77,0c-.16,0-.29-.35-.43-.53.17-.13.34-.35.52-.36a15.63,15.63,0,0,1,2.46-.1c1.54.11,3.07.32,4.6.49Z"/><path d="M124,127c-1,.94-1.55,1-2.32.3a1.06,1.06,0,0,1,.1-.78C122.59,126.42,123.41,126.18,124,127Z"/><path d="M114.29,129.26a14.1,14.1,0,0,1-1.54.43c-.11,0-.37-.27-.39-.45s.22-.4.37-.41a11.51,11.51,0,0,1,1.44,0Z"/><path d="M116,129.37l-1.12.16,0-.55,1.11-.06Z"/><path d="M127.23,84.47l-.25.16c-.16-.24-.44-.47-.46-.71a24.87,24.87,0,0,0-3.13-10.6c-.87-1.58-1.68-3.19-2.48-4.81a5.9,5.9,0,0,1-.33-1.2l.42-.13C124,72.59,127.25,77.94,127.23,84.47Z"/><path d="M120.11,76.5c-.5.57-1,1.16-1.51,1.71a12.85,12.85,0,0,0-3.55,5.41c-.17.61-.32,1.22-.49,1.83h-.37a3,3,0,0,1-.14-.92,13,13,0,0,1,5.26-7.93A1,1,0,0,1,120.11,76.5Z"/><path d="M118.68,84.53l-3.21,7.41-.21-.09A13.06,13.06,0,0,1,118.68,84.53Z"/><path d="M129.27,75.48l-3.51-1.77C126.92,72.86,129,73.89,129.27,75.48Z"/><path d="M125.62,102.41l0,0,0,0h0Z"/><path d="M126.44,102.46l-.83-.06a3.3,3.3,0,0,1-.19-4.19,9.31,9.31,0,0,0,0,2.18A10.94,10.94,0,0,0,126.44,102.46Z"/><path d="M124.69,97.27c-.24,1.4-.48,2.81-.72,4.19C123,101,123.36,98.29,124.69,97.27Z"/><path d="M129,78.35c-.68-.55-1.33-1-1.94-1.59-.12-.12-.2-.5-.13-.56a.81.81,0,0,1,.65-.23A2.14,2.14,0,0,1,129,78.35Z"/></svg>