<?xml version="1.0" encoding="UTF-8"?>
<svg id="Layer_1" xmlns="http://www.w3.org/2000/svg" version="1.1" viewBox="0 0 192.4 181.8">
  <!-- Generator: Adobe Illustrator 29.3.1, SVG Export Plug-In . SVG Version: 2.1.0 Build 151)  -->
  <defs>
    <style>
      .st0 {
        fill: #b0d235;
      }

      .st1 {
        fill: #a07d3b;
      }

      .st2 {
        fill: #231f20;
      }

      .st3 {
        fill: #f6f6ca;
      }
    </style>
  </defs>
  <circle class="st3" cx="98.3" cy="90.9" r="77.1"/>
  <path class="st0" d="M95.3,53.3c-2.6,0-4.3,1.4-6.1,3.1-1.7,1.5-3.4,2.9-5.2,4.3-1.6,1.2-3.3,2.2-4.8,3.4-2.2,1.7-4.9,2.9-7.7,3.3-3.9.8-7.8,1.5-11.7,2.4-2,.4-3.8,1.2-5.7,1.8-.2,0-.5.2-.8.3-.6-2,0-3.6.9-5.3,1.4-2.9,3.7-4.9,6-6.9,2.6-2.1,5.3-4.1,8.1-5.9,3.1-2,6.4-3.4,10-4.1,2.6-.6,5.3-.8,7.9-1.4,2.2-.6,3.8.4,5.4,1.6l.2.2h0c-1.2-.2-2.5-.5-3.8-.7-1.1,0-2.2,0-3.3.4-4.7,2.2-9.3,4.5-13.9,7-3.9,2.2-7.4,5-10.5,8.3,0,0-.2.3-.2.4l3.7-2.8c5.6-4.2,11.7-7.8,18.1-10.7,2.8-1.5,6.1-1.7,9.1-.5.9.4,1.8.6,2.8,1s1,.4,1.5.7h0Z"/>
  <path class="st1" d="M135.3,108.4h-.3c-.2-.6-.4-1.2-.5-1.8-.1-1.1-1.1-1.9-2.3-1.8-.2,0-.4,0-.5,0l-1.6.3c-.1-.6-.2-1.2-.3-1.7-.2-1.1-.8-1.3-1.8-.9-.5.2-1,.3-1.5.4-.3,0-.7-.3-1-.5h0c-1.4.4-2.4-.3-3.6-1.1-.9-.6-1.4-1.5-1.4-2.6,0-2.5-1-3.5-3.4-3.9-1.8-.3-2.5-1.2-2.2-3.3.2-.7,0-1.4-.4-2-.3-.4-.7-.9,0-1.3l.6.8c.8-4.2,4-6.7,5.7-10.1-2.7,2.3-4.7,5.2-6.1,8.4-.3-.3-.5-.6-.7-1-.5-.7-.7-1.6-.7-2.5.3-2.5,1.6-4.6,2.4-6.9,1-2.8,1.1-5.8.2-8.6-.5-1.6-1.1-3.2-1.7-4.7-.5-1.2-1.3-2.2-2.2-3.1-.3-.2-.6-.3-1-.3h-3.2c.5-.2,1.1-.5,1.6-.7,1.3-.7,2.9-.9,4.3-.6,1.3.2,2.4.9,3.1,2,.7,1,1.7,1.9,2.8,2.5,1.3.8,2.4,1.9,3.2,3.2.2.3.4.5.7.7l-.4-1.3h.2c.6.6,1.2,1.4,1.8,2.2.3.4.7.9,1,1.3,1.8,2,3.5,4.1,4,7,.3,2.3.3,4.5.1,6.8-.2.9-.5,1.7-.8,2.5-.1.5-.2.9-.2,1.4s-.1,1.3-.3,1.9c-.3.6-.3,1.3,0,1.9.4.7.7,1.4.9,2.1.4,1.3,1.2,2.3,2.3,3,1.6.8,2,2.4,2.6,3.9.5,1.2.7,2.4.8,3.7.1,1.6,0,3.1-.4,4.7h.2Z"/>
  <path class="st2" d="M46.8,42.6c-4.9-2.5-9.4-4.8-13.5-7l8,7.3c.7.6,1.9,1.6,3.7,3s3.1,2.5,3.6,3,.2.4,0,.6c0,.3-.2.5-.4.8-.3.3-.6.4-.9.2l-.7-.7-1-1c-.9-.8-2.3-2-4.2-3.6-2-1.6-3.2-2.7-3.6-3l-3.1-2.9c-.5-.5-1.2-1.2-2.2-2.1s-1.5-1.5-2.1-2.1h-.1c-.8-.9-1-1.4-.7-1.8.2-.2.8,0,1.8.2,2.8,1.1,5.5,2.3,8.1,3.7,2.2,1.1,4.9,2.7,8.3,4.6l2,1.2h0c-1.5-1.4-2.9-2.7-4.1-3.8l-4.2-4-7.2-6.6c-.3-.4-.3-1,0-1.3h0c.4-.4.9-.4,1.5.2h.2c0,.4.3.7.6.9,1,.9,2.5,2.3,4.4,4.2s3.4,3.3,4.5,4.2l7.4,6.8c.3.2.5.5.5.9,0,.3,0,.6,0,.8-.3.3-2.6-.5-6.8-2.6h0Z"/>
  <path class="st2" d="M60.1,39.1c-.3,0-.6-.2-.8-.4-.7-.9-1.5-1.7-2.3-2.4l-.5-.5-2.9,1.7c.2.5.7,1.4,1.5,2.7.4.6.7,1.3.8,2.1,0,.3,0,.5-.3.7s-.5.3-.7.3-.5,0-.6-.3v-.2h0c-2.3-5.3-4.9-10.4-7.9-15.2,0,0,0-.2-.2-.4l-.5-.8c-.5-.7-.8-1.2-1-1.6-.3-.3-.5-.7-.6-1.1l.9-.7c.2-.2.5-.3.8-.3s.5,0,.6.3c1.6,1.9,3.3,3.7,5.2,5.4,1.8,1.6,3.4,3.4,5,5.2.2.3.5.5.8.7s.5.4.7.7c0,0,.6.6,1.5,1.3.5.4,1.1.9,1.5,1.4h0c.3.3.3.7.2,1-.3.3-.6.5-1,.6l-.2-.2ZM54.7,34.1c-1.6-2-3.3-3.8-5.2-5.6l-2.4-2.5c2.5,4.6,4.4,8.1,5.8,10.4.9-.3,1.8-.8,2.6-1.4-.3-.3-.6-.6-.8-.9Z"/>
  <path class="st2" d="M63.8,35.9l-.7-1.1c-.2-.3-.4-.7-.7-1l-.6-1c-.2-.2-1.6-2.1-4.2-5.9s-4.3-6.2-5-7.2c-.7.5-1.5.8-2.3.9-.2,0-.5-.1-.6-.3,0-.2,0-.4,0-.6s.3-.4.5-.6c.6-.4,1.3-.7,2-1.1.7-.3,1.4-.6,2-1h.2c0-.1.2-.3.2-.3.6-.4,1-.3,1.3.1,0,.2.2.5,0,.7,0,.3-.3.5-.5.6-.3.1-.5.3-.8.4l-.6.2h0v.3c1,1.7,2.8,4.2,5.4,7.7,2.4,3.2,4.2,5.8,5.4,7.7,0,.2.2.5,0,.8,0,.3-.3.5-.5.7h-.8.3Z"/>
  <path class="st2" d="M70.3,33.1c-.5,0-.9-.2-1.3-.5-.9-.7-1.6-1.5-2.2-2.4-.6-1-1.2-2.1-1.7-3.2-1-2.1-2.2-4.8-3.6-7.9l-1.1-2.3c0-.2-.2-.4-.3-.6-.4-.8-.6-1.2-.7-1.4,0-.5,0-.8.3-.9.3,0,.7,0,.9.3.4.3.6.6.8,1l3.7,8.2c.5,1.1,1,2.1,1.6,3.1.9,1.6,1.4,2.6,1.6,3.1.7,1.5,1.6,1.9,2.9,1.4,1.4-.7-.3-6.4-5.1-17.2l-.7-1.7v-.3c-.2,0-.2-.1-.3-.2,0-.2,0-.4,0-.6,0-.2.3-.4.6-.4.2-.1.5-.1.7,0,.2,0,.4.2.5.4s.2.4.3.7c.2.3.3.8.6,1.6,0,.5.3,1.1.6,1.6.2.4.4.8.5,1.3l.5,1.3v.2c.2,0,.2.2.3.3,4,8.9,4.7,14,2.1,15.1-.4.2-.9.3-1.4.3v-.3Z"/>
  <path class="st2" d="M81.8,27.6c-.8-1-1.4-2-2-3.1l-.5-1c-1.5-2.8-2.4-4.4-2.7-4.8h-.4c.2.7.3,1.3.5,1.8l.5,1.7c.6,2.2,1.5,4.4,2.6,6.4v1l-1,.3-.6-.4-.6-2.1c-.6-1.9-1.5-4.8-2.8-8.5-1.4-4.1-2.3-6.9-2.8-8.6-.3-1,0-1.6.6-1.8,1-.3,2.1-.3,3.1,0,.9.4,1.6,1.2,1.8,2.1l.7,2.2c0,.4,0,.7,0,1.1v1.1l-.2,1.4-.2,1.1.4.7,1.1,2.1c.8,1.5,1.5,2.8,2,3.7.5.9,1.1,1.7,1.8,2.5l.3.3c.3.3.5.6.6.9v.6c0,.2-.2.3-.4.4-.5.2-1.1-.2-1.8-1.1h0ZM76.5,15c0-1,0-2-.4-3-.2-.6-.5-1.3-.8-1.8-.2-.3-.4-.5-.8-.6-.3-.1-.7-.1-1,0v.5l1.2,3.7c.4,1.1.7,2.3,1.1,3.6.5-.7.7-1.5.6-2.3h.1Z"/>
  <path class="st2" d="M86.4,27.8c-.2-.1-.4-.4-.5-.6v-.9c0,0-.2-.6-.2-.6,0-.2,0-.5,0-.7,0-.5-.2-1.1-.4-2.1l-.4-2.1c-.2-1.1-.4-2.7-.7-4.8-.2-1.9-.4-3.5-.6-4.8,0-.3-.2-.8-.3-1.4s-.3-1.1-.3-1.4c-.2-1.6,0-2.4,1-2.5.8,0,1.7,0,2.6,0,1,0,1.5.4,1.6.8,0,.2,0,.5-.2.7s-.4.4-.6.6c-.9-.2-1.7-.3-2.6-.3,0,.3.2.8.3,1.4,0,.9.2,1.6.3,2.4,0,1.1.2,1.8.3,2.4l.2.5h.5c.2-.2.4-.2.7-.3,1-.2,1.6,0,1.7.7,0,.2,0,.5-.2.6-.2.2-.4.3-.7.4h-1.7c0,.7.3,1.5.5,2.6s.3,2.1.4,2.9c0,1.3.3,2.3.4,3,0,.6.2,1.2.4,1.8l1.1-.2c.4,0,.8-.2,1.3-.2.8-.1,1.3,0,1.4.6,0,.3,0,.6-.3.8-.3.2-.6.4-1,.4l-2.7.5c-.3,0-.6,0-.8-.2h-.4Z"/>
  <path class="st2" d="M103.3,26.1h0c0-1.4-.2-2.7-.4-4-.3-1.4-.7-3.2-1.2-5.2-.4-1.5-.8-2.9-1-4.1l-.6,13c0,.3,0,.5-.2.8-.2.2-.5.3-.7.2-.2,0-.5,0-.6-.3,0-.2-.2-.4-.2-.7v-.3l.5-9.7c.2-2.8.3-6.1.5-9.7l.2-4c0-.2,0-.4.2-.5s.5-.2.7-.1c1,0,2,.5,2.7,1.3.6.8,1.1,1.8,1.2,2.8v1.5c0,.4,0,.7,0,1.1,0,.4,0,.6-.2.8,0,.3-.2.7-.3,1l-.3.8-.4.9-.4.8c0,1,0,2,.3,3,.2,1.2.4,2.3.7,3.4.2.7.5,2,1,3.7l.8,2.9h0c0,.4,0,.7-.2,1.1,0,.3-.4.6-.7.5-.4-.1-.8-.5-1.2-1.1h-.1ZM101.8,10l.6-2.8v-.5c0-.8,0-1.5-.3-2.2,0-.4-.3-.7-.5-1,0-.2-.4-.4-.6-.5l-.2,3.3c0,1.5-.2,2.6-.2,3.4v1.5c.4-.4.7-.8,1.1-1.3h0Z"/>
  <path class="st2" d="M107.1,27.3c-.2-.2-.3-.5-.3-.8l.2-.8v-.6c0-.2,0-.4.2-.7,0-.5.2-1.2.3-2.1l.3-2.1c.2-1.1.5-2.6.9-4.7.4-1.9.7-3.4.9-4.7,0-.5,0-.9,0-1.4s0-1.1,0-1.4c.3-1.5.8-2.2,1.8-2.1.8.2,1.7.5,2.4.8.9.4,1.3.9,1.2,1.2,0,.2-.2.4-.4.5-.2.2-.5.3-.7.3-.7-.4-1.5-.8-2.4-1.1,0,.3,0,.8-.2,1.4-.2.9-.3,1.6-.4,2.3-.2,1-.4,1.8-.5,2.3v.5h.5c.2,0,.4,0,.7.1,1,.2,1.5.6,1.4,1.2,0,.2-.2.4-.4.5-.2,0-.5.2-.8,0-.3,0-.6-.1-.9-.2h-.8c0,.4-.2,1.3-.4,2.4s-.4,2.1-.5,2.9c-.3,1.3-.5,2.3-.6,2.9s-.2,1.2-.2,1.8h1.1c.4.1.8.2,1.3.3.8.1,1.2.5,1.1,1,0,.3-.2.5-.5.6s-.7.1-1,0l-2.8-.5c-.3,0-.6-.2-.7-.4v.5Z"/>
  <path class="st2" d="M116.2,29.2c-.4.1-.8.1-1.2,0-.3,0-.5-.3-.6-.5v-.8c.5-1.8,1.3-4.1,2.3-7,1.1-3.1,1.8-5.4,2.3-7v-.2c.3-1.4.6-2.4.8-3,.6-2,1.2-2.9,2-2.7.2,0,.4.2.5.4s0,.4,0,.6c0,.3-.2.6-.4,1.2-.2.4-.3.8-.4,1.2-.4,1.4-.8,2.7-1.1,3.8-.3,1.1-.7,2.4-1.1,3.8-.3.4-.4.8-.6,1.3v.4c0,0-.9,2.5-.9,2.5-.3.7-.5,1.6-.8,2.5-.4,1.5-.3,2.3.4,2.5h.2c0,0,.3.1.4.1.3,0,.5.1.7.2,1.1.3,1.6.8,1.4,1.5,0,.2-.2.4-.4.5-.2,0-.5.1-.8,0-.8-.6-1.8-1-2.8-1.3h0Z"/>
  <path class="st2" d="M123.1,31.6c-.3-.6-.5-1.2-.5-1.8,0-1.5.2-3,.7-4.5.4-1.4.9-2.7,1.5-4.1,0-.2.2-.4.3-.6l.2-.5v-.2l.2-.5,1-2.1c.3-.7.9-1.7,1.6-3,.5-.9,1.2-1.8,1.9-2.5.3-.3.6-.5.9-.7.3-.1.6-.1.9,0,.8.3,1.4.8,2,1.4.5.6.9,1.2,1.1,1.9.2.8.2,1.5.2,2.3s-.2,1.8-.4,2.6c-.3.9-.6,1.9-1,2.8v.2c-.4.6-.6,1.2-.8,1.7l-.7,1.7c-2.6,5.8-5.2,8.1-7.9,6.9-.5-.2-1-.6-1.3-1.1h.1ZM125.9,31.4c.5-.2.9-.5,1.2-.9.9-.9,1.6-1.9,2.2-3,.5-.8.9-1.7,1.3-2.6.4-.9.9-2.1,1.4-3.6s1-2.8,1.4-3.5l.2-.5c.3-.7.3-1.6.1-2.3s-.7-1.3-1.4-1.6-1.5,0-1.9.6c-.6.7-1,1.4-1.4,2.3-.2.4-.3.7-.4,1l-.4.8-.7,1.4c-.2.4-.4.9-.7,1.4-.5,1.1-.9,2.2-1.4,3.3-.6,1.5-1,3.1-1.4,4.7-.3,1.6-.2,2.6.4,2.9s.9.1,1.2,0h0l.3-.4Z"/>
  <path class="st2" d="M134.7,37.9c-.1-.3,0-.7.1-.9.6-1,1.1-2,1.5-3l.3-.7-2.5-2.2c-.4.4-1.1,1.1-2.1,2.3-.4.6-1,1.1-1.7,1.5h-.7c-.2,0-.4-.3-.5-.6v-.7h.1v-.2c4.2-3.9,8.2-8.1,11.8-12.4,0-.1.2-.2.3-.4.1-.2.3-.4.5-.7.5-.6.9-1.2,1.2-1.5.2-.3.5-.6.9-.7l.9.6c.2.1.4.3.6.6.1.2.1.5,0,.7-1.3,2.2-2.4,4.4-3.4,6.7-1,2.2-2,4.3-3.2,6.4-.2.3-.3.7-.4,1-.1.3-.2.6-.4.9,0,0-.3.8-.8,1.8-.2.6-.5,1.3-.8,1.9h0c-.2.4-.5.6-.9.5-.4-.2-.7-.5-.9-.8h0ZM137.6,31c1.3-2.2,2.5-4.4,3.6-6.7l1.6-3.1c-3.6,3.9-6.2,6.8-7.9,8.9.6.8,1.3,1.5,2.2,2,.2-.4.3-.7.6-1.1h-.1Z"/>
  <path class="st2" d="M139.8,36.4l3.4-4c1-1.2,2.1-2.5,3.4-3.9.4-.5,1.1-1.4,1.9-2.6s1.5-2.1,1.8-2.4c.2-.2.5-.4.8-.4s.6,0,.8.3c.6.5,1.1,1.1,1.4,1.8.3.7.5,1.5.5,2.3,0,2.5-.8,5-2.4,6.9-.2.2-.3.4-.5.6l-.6.7-1.2,1.4c-.7.9-1.5,1.7-2.2,2.5-.7.7-1.6,1.3-2.5,1.8-1,.4-2,.6-3.1.7-.6,0-1.2,0-1.8-.2l-1.8-1.5c-.5-.3.2-1.6,2.1-3.8v-.2ZM141.1,40.4c.4,0,.9,0,1.3,0,.5-.2.9-.4,1.3-.6.5-.3.9-.6,1.3-.9.8-.6,1.5-1.3,2.2-2.1.2-.2.4-.5.8-.9,4.3-5.1,5.5-8.6,3.8-10.4-.9.8-1.7,1.6-2.4,2.5-.9,1.1-2.4,3-4.5,5.7-1.8,2.4-3.4,4.4-4.5,5.7l-.5.6c.3.3.7.5,1.1.6h0Z"/>
  <path class="st2" d="M144.7,46.5c0-.3,0-.6.3-.8l.6-.6.5-.4c.1-.2.3-.3.5-.5s.8-.8,1.5-1.5l1.5-1.5c.8-.7,2-1.8,3.6-3.2,1.5-1.2,2.7-2.3,3.7-3.1.4-.3.7-.6,1-1,.4-.5.8-.8,1-1,1.2-1,2.1-1.2,2.7-.5.6.7,1,1.4,1.4,2.2.4.9.5,1.5.2,1.8-.2.2-.4.2-.6.2-.3,0-.5,0-.8-.2-.3-.8-.7-1.6-1.2-2.3-.2.2-.6.6-1,1-.6.6-1.2,1.1-1.8,1.6-.8.7-1.4,1.2-1.8,1.5l-.3.4.4.4c.2,0,.3.3.5.5.7.8.8,1.4.4,1.8-.2.2-.4.2-.7.2s-.5-.2-.7-.4-.4-.5-.6-.7l-.6-.6c-.4.4-1,1-1.8,1.7s-1.6,1.4-2.2,2c-1,.8-1.8,1.5-2.3,1.9s-.9.8-1.3,1.3l.8.8c.3.3.6.6.9,1,.6.6.6,1.1.3,1.5-.2.2-.5.3-.8.2s-.6-.3-.9-.6l-2-2.2c-.2-.2-.3-.5-.3-.8h0Z"/>
  <path class="st2" d="M152.9,49.4l4.4-2.9c1.3-.8,2.7-1.8,4.3-2.9.6-.4,1.4-1.1,2.6-2s2-1.6,2.3-1.8c.2-.2.5-.2.8,0,.3,0,.5.2.7.5.4.6.7,1.4.8,2.1.1.8,0,1.6-.1,2.4-.4,1.6-1.2,3.2-2.4,4.4-.5.6-1.2,1.1-1.8,1.6-.2.2-.4.3-.7.4l-.8.5-1.5,1c-.9.6-1.9,1.2-2.8,1.8-.9.5-1.9.8-2.9,1s-2.1,0-3.1-.2c-.6-.2-1.1-.4-1.7-.7l-1.3-2c-.3-.4.7-1.5,3.1-3.1h0ZM153,53.6c.4.2.9.3,1.3.3s1,0,1.4-.2c.5,0,1-.3,1.5-.5.9-.4,1.8-.9,2.7-1.4.2,0,.6-.3,1-.6,5.5-3.7,7.6-6.8,6.4-9.1-1,.5-2,1.1-3,1.8-1.1.8-3.1,2.2-5.9,4.3-2.4,1.9-4.4,3.3-5.9,4.3l-.6.4c.2.4.6.6,1,.8h.1Z"/>
  <path class="st2" d="M51.1,165.7v-.6l1.7-2.7c.8-1.2,1.4-2.1,1.8-2.7.5-.8.9-1.7,1.2-2.6.3-.9.8-1.8,1.2-2.6.5-.8.9-1.7,1.2-2.6.4-1,.6-2.1.8-3.1s.5-2.1.8-3.1c.3-.9.7-1.8,1.2-2.6,0-.1.3-.2.4-.2.2,0,.4,0,.6.2.2.1.3.5.2,1,0,.8-.3,1.6-.6,2.4-.3,1-.5,1.6-.6,1.8l-.8,2.2-.5,1.4c.3-.3.6-.7.9-1.1,1.1-1.5,2-2.7,2.8-3.6.4-.5.9-1,1.5-1.4.4-.3.8-.4,1.1-.2.5.3.7.6.6.8-1.1,1.5-2.3,3-3.6,4.3-1.3,1.3-2.6,2.8-3.6,4.3l-.3.4c0,.1-.3.3-.3.5l-.3.4c-.5.8-1.2,2.1-2.2,3.8l-2.3,3.8-.3.7-.4.7-.4.7c0,.2-.4.4-.6.4-.3,0-.6,0-.8-.2-.2-.1-.3-.3-.4-.5h0Z"/>
  <path class="st2" d="M60.8,170.9c-.3-.6-.5-1.2-.5-1.8,0-1.5.2-3,.7-4.5.4-1.4.9-2.7,1.5-4.1,0-.2.2-.4.3-.6l.2-.5v-.2l.2-.5,1-2.1c.3-.6.8-1.6,1.6-3,.5-.9,1.2-1.8,2-2.5.3-.3.6-.5,1-.7.3-.1.6-.1.9,0,.8.3,1.4.8,2,1.4.5.6.9,1.2,1.1,1.9.2.8.2,1.5.2,2.3s-.2,1.8-.4,2.6c-.3.9-.6,1.9-1,2.8v.2c-.4.6-.6,1.2-.8,1.7l-.7,1.7c-2.7,5.8-5.4,8.1-8,6.9-.5-.2-1-.6-1.2-1.1h0ZM63.6,170.7c.5-.2.9-.5,1.2-.9.9-.9,1.6-1.9,2.2-3,.6-1,1-1.8,1.3-2.6.4-.9.9-2.1,1.4-3.6s1-2.8,1.4-3.5l.2-.6c.3-.7.3-1.6,0-2.3-.2-.7-.7-1.3-1.3-1.6-.7-.3-1.5,0-1.9.6-.6.7-1,1.5-1.4,2.3s-.3.7-.4,1l-.4.8-.7,1.4c-.3.4-.5.9-.7,1.4-.5,1.1-.9,2.2-1.4,3.3-.6,1.5-1,3.1-1.4,4.6-.3,1.6-.2,2.6.4,2.9.4.2.8.2,1.2,0l.2-.2Z"/>
  <path class="st2" d="M73.5,175.8c-.3-.3-.6-.8-.7-1.2-.3-1.1-.3-2.2-.2-3.3.2-1.2.4-2.4.7-3.6.6-2.3,1.3-5.1,2.2-8.4l.6-2.5c0-.2,0-.4,0-.6.2-.8.3-1.3.3-1.5.3-.4.6-.6.8-.5s.4.3.5.8c0,.4,0,.9,0,1.3l-2.3,8.7c-.3,1.1-.5,2.3-.7,3.4-.3,1.8-.6,2.9-.7,3.4-.4,1.6,0,2.5,1.4,2.9,1.5.4,3.8-5.1,6.9-16.5l.5-1.8v-.6c0-.2.2-.4.3-.5h.7c.2,0,.5.2.6.4s.2.4.2.6,0,.5-.2.7c0,.3-.3.9-.5,1.6-.2.5-.4,1-.6,1.6,0,.4-.3.9-.4,1.3l-.4,1.3v.5c-2.5,9.4-5.2,13.8-7.9,13-.5-.1-1-.3-1.3-.7v.2Z"/>
  <path class="st2" d="M92.6,178.9c-.3-.2-.5-.5-.5-.8.5-.5.8-1.7.8-3.8s0-3.1-.2-5.5-.2-4.1-.2-5.4v-1.8c0-.5.2-1.1.2-1.8s0-1.6-.3-2.4c-.2-.7-.3-1.4-.3-2.1s.9-1.1,2.6-1.1h.5c1.1,0,2.2.4,3.1,1.2.8.8,1.4,1.7,1.7,2.7.4,1.1.6,2.2.8,3.3,0,1.2.2,2.2,0,2.9v3.6c0,.9-.2,1.7-.4,2.5-.3,1-.6,2-1,3-.7,1.9-1.9,3.7-3.5,5.1-.6.5-1.5.8-2.3.8s-.8-.1-1.1-.3h0ZM96.7,175.1c.7-1,1.2-2,1.5-3.1.6-2.1,1-4.3,1-6.5s0-2.6-.2-3.9c-.2-1.3-.7-2.6-1.5-3.7-.4-.5-.8-1-1.4-1.3s-1.3-.5-1.9-.5h0c0,2,0,5,.2,9s.2,7,.2,9v3.1c.8-.5,1.6-1.2,2.2-2.1h0Z"/>
  <path class="st2" d="M107.2,178.9c-.2-.1-.4-.4-.5-.7v-.9c0,0-.2-.7-.2-.7,0-.2,0-.4,0-.7,0-.5-.2-1.1-.3-2.1l-.3-2.1c0-1.1-.3-2.7-.5-4.8-.2-1.9-.3-3.5-.5-4.8,0-.3,0-.8-.3-1.4,0-.4-.2-.9-.3-1.4-.2-1.6.2-2.4,1.1-2.5.9,0,1.7,0,2.6.1,1,.2,1.5.4,1.6.8,0,.2,0,.5-.2.6-.2.2-.4.4-.6.5-.8-.2-1.7-.3-2.6-.3,0,.3,0,.8.2,1.4,0,.9.2,1.7.3,2.4,0,1.1,0,1.9.2,2.4l.2.5h.5c.2-.2.4-.2.7-.2,1-.1,1.6.1,1.7.7,0,.2,0,.5-.2.6-.2.2-.5.3-.7.3h-1.7c0,.7.2,1.5.4,2.6s.2,2.1.3,2.9c0,1.3.2,2.3.3,3,0,.6,0,1.2.3,1.8l1.1-.2c.4,0,.8-.1,1.3-.2.8,0,1.3.1,1.3.6s0,.6-.3.8-.6.3-1,.4l-2.8.3c-.3,0-.5,0-.8-.2l-.2.5Z"/>
  <path class="st2" d="M120,176.7c-.4,0-.9,0-1.3-.2-1.7-.6-3-2.9-4-7l-.2-.9-.2-1-.2-.8c-.2-.9-.4-1.6-.5-2.3s-.3-1.4-.4-2.2c0-.7-.2-1.4-.2-2.1s0-1.3.2-1.9c0-.6.3-1.2.6-1.7.3-.5.8-.9,1.2-1.2.6-.4,1.2-.7,1.9-.9h.8c.2.1.3.3.4.5v.6c0,.2-.2.3-.4.4l-1.5.4c-.4.1-.7.5-.9,1.1-.2.7-.2,1.5-.2,2.2,0,1.3.3,2.6.6,3.9v.2l.7,3.1c.2.9.4,2,.7,3.1.2.7.4,1.3.6,2,.2.6.6,1.3,1,1.8s1,.8,1.6.9h1.1c.3,0,.5-.2.6-.4h.7c.2,0,.4.2.4.5.2.8-.3,1.4-1.4,1.7-.5.1-1,.2-1.5.2h-.2Z"/>
  <path class="st2" d="M125.8,173.7c-.2-.5,0-.9.7-1.1h.3c0-.1.3-.2.3-.2.2,0,.3-.1.3-.3s0-.4,0-.6c0-.4-.3-.9-.7-1.6-.2-.5-.6-1.3-1.2-2.6-1.3-3.1-2.3-5.4-2.9-7.1-.2-.6-.4-1.1-.6-1.6l-.6-1.6c-.2-.6-.4-1.1-.7-1.7-.2.2-.4.3-.7.4-.4.2-.8,0-.9-.3h0c0-.4,0-.7.2-.9.3-.3.6-.6,1-.8.7-.4,1.4-.8,2.1-1.1h.7c.2,0,.4.3.5.5v.7c0,.2-.2.4-.4.4h-.5c-.2.1-.3.2-.4.4v.6c.7,2,2,5,3.7,8.9.3.7.8,1.8,1.5,3.2.5.9.9,1.9,1.2,2.9l.4,1.2c.2-.1.4-.2.6-.3.9-.3,1.4-.1,1.7.6v.2l-.5.8h-.2c-.1.1-.3.2-.6.3-.6.3-1.1.5-1.2.5-1.7.7-2.7.7-3,.1h0Z"/>
  <path class="st2" d="M134,167.2l-2.3-4.7c-.7-1.4-1.5-2.9-2.4-4.6-.3-.6-.9-1.6-1.7-2.8s-1.3-2.2-1.5-2.5c0-.3,0-.6,0-.8,0-.3.3-.5.6-.6.7-.4,1.4-.6,2.2-.6s1.6.1,2.4.4c2.3.9,4.3,2.6,5.4,4.9.1.2.2.5.3.7l.4.8.8,1.6c.6,1.2,1.1,2.2,1.4,3,.4.9.6,1.9.7,2.9,0,1.1-.2,2.1-.6,3.1-.2.6-.5,1.1-.9,1.6l-2.1,1.1c-.5.3-1.4-.9-2.8-3.4h.1ZM138.2,167.6c.2-.4.4-.8.4-1.3v-1.5c0-.5-.2-1.1-.4-1.6-.3-1-.6-1.9-1.1-2.9-.1-.2-.3-.6-.5-1-3.1-5.9-5.8-8.4-8.2-7.4.4,1.1.8,2.1,1.4,3.1.7,1.2,1.9,3.3,3.6,6.3,1.5,2.7,2.7,4.8,3.6,6.4l.4.7c.4-.2.7-.5.9-.9h0Z"/>
  <path class="st2" d="M147.8,164.2c-.3,0-.5-.2-.7-.4l-.5-.7-.4-.5c-.2-.2-.3-.4-.4-.6-.3-.4-.7-.9-1.3-1.7l-1.3-1.7c-.6-.9-1.5-2.2-2.7-4-1-1.6-1.9-2.9-2.7-4-.2-.2-.5-.6-.9-1.1s-.7-.8-.9-1.1c-.9-1.3-1-2.2-.2-2.7.7-.5,1.5-.9,2.3-1.1.9-.3,1.5-.3,1.8,0,.1.2.2.4.1.7,0,.3-.2.5-.3.8-.8.2-1.7.5-2.4.9.2.2.5.6.9,1.1.5.7,1,1.4,1.4,2,.6.9,1,1.6,1.3,2l.4.4.4-.3c.2-.1.3-.3.5-.4.9-.6,1.5-.7,1.8-.2.1.2.2.4.1.7,0,.3-.3.5-.5.6-.2.2-.5.3-.8.5l-.7.5c.4.4.9,1.1,1.5,2s1.2,1.7,1.7,2.4c.7,1.1,1.3,2,1.6,2.5s.7,1,1.1,1.5l.9-.7c.3-.2.6-.5,1.1-.8.7-.5,1.2-.5,1.5,0,.2.2.2.6,0,.8-.2.3-.4.6-.7.8l-2.3,1.6c-.2.2-.5.2-.8.2h0Z"/>
  <path d="M137.1,103.7c-.2-1.4-.1-2.8-1.3-3.9-.1,0,0-.4,0-.6,0-1.9-1.1-3.6-2.8-4.4-.3-.2-.7-.3-.8-.5-.8-1.8-2-3.5-1.3-5.7.3-1,.2-2.1.5-3.1.6-1.8.8-3.8.6-5.7-.3-1.8-1-3.5-.6-5.3,0-.2,0-.5-.2-.7-.6-.9-1.1-1.9-1.8-2.8-1-1.4-1.9-2.8-2.9-4.2-.8-1.2-1.7-2.2-2.8-3-2.2-1.5-4.6-2.8-6.1-5.2-.2-.4-4.6-.8-6.2-.6-2.5.3-4.8,1.5-6.5,3.4-.3-1.8-.6-3.6-.9-5.3,0-.2,0-.3-.3-.4-.2-.2-.5-.2-.7,0-.2,0-.4.3-.5.5-.4,1.1-.7,2.3-1.1,3.7-.4-.6-.7-1.1-1-1.5-1.3-2.3-2.4-4.8-4.5-6.5-1.7-1.4-3.5-2.7-5.4-3.8-.6-.4-1.3-.6-2-.5-2.6.2-5.1.5-7.7.9-9.3,1.8-17,6.5-23.5,13.2-3.3,3.3-5.4,7.2-5.4,12.1s0,.4,0,.7h.3c2.5-1.3,5.1-2.2,7.8-2.7,3.6-.7,7.3-1.3,10.9-2.2,2.9-.6,5.6-1.7,8.1-3.2,2.3-1.3,4.5-2.8,6.7-4.3,2.4-1.8,4.6-3.8,6.9-5.7,1-.9,2.5-.8,3.4.2,0,0,0,0,.2.2,3.3,5.1,5.1,11,5.2,17.1.2,3.3.4,6.6.7,9.8.2,2.1.5,4.2.6,6.4,0,2.8,0,5.6.2,8.4v5.8c-.2,1.5-.5,3-.8,4.4-.4,2.9-.9,5.8-1.3,8.7-.3,2-1,4-2,5.8-.6-.4-1.3-.7-2-1-1.2-.5-1.8-.2-2.4.9-.6,1-1.8,1.6-3,1.4-.6,0-1.5,0-1.7.2-.5.5-1.2.8-1.9.8-.6,0-1.2.3-1.8.5,0,0-.2.4-.2.6,0,0,.3.2.4.2,1.2-.3,2.4-.6,3.7-.9h.8c.5,0,1.2.3,1.6,0,1.3-.6,2.9-.9,3.7-2.6.5.4,1.1.6,1.4,1,1.2,1.7,3.1,1.9,4.9,2.1.7,0,1.4-.2,2-.7,1.6-1.4,1.4-.8,2.4.3s0,.3.2.4c.3.2.8.5,1,.4,1.4-.3,2.9,0,4.1.6,1.6.8,3.5,1.1,5.3.9.6,0,1.2,0,1.8-.1.4-.1.9-.3,1.2-.6-.3-.3-.6-.8-1-.8h-2.2c-.9,0-1.8,0-2.7-.3-1.8-.5-3.5-1.6-5.5-1.3-.6,0-1.2-.2-1.4-.8-.2-.6-.8-1.1-1.4-1.2s-1.2-.2-1.8-.3v-.6c.2-.9.5-1.8.8-2.7,1.1-2.5,1-5.2,1.2-7.9,0-1.6.4-3.2.5-4.8.2-1.3.3-2.7.3-4,0-3.1-.2-6.2-.3-9.3,0-2.3-.2-4.7-.3-7-.3-4.5-.6-9-.9-13.6,0-1.2-.2-2.4-.3-3.5-.4-1.8,0-3.7.7-5.4.5-1,1-1.9,2.4-1.8.8,0,1.5,0,2.3,0,.6,0,1.2,0,1.6.5.4.4,1,1,1,1.5,0,1.1.4,2.2,1,3.1,1.9,3.2,2.1,7.1.5,10.5-.7,1.6-1.4,3.2-2,4.8s-1.1,3.2.4,4.6c.3.3.8.7.4,1.3-.5.7-.4,1.7,0,2.3.4.7.6,1.5.6,2.2,0,2.6.6,3.2,3.2,3.6,1,.2,2,.6,2.1,1.7.2,1.4.9,2.8,1.9,3.8,1.3,1.6,3,1.9,4.7,2.3.9,0,1.8,0,2.6,0v.8c0,.3,0,.5.1.8,0,.6.5,1.2,1.1,1.2h.4c.5,0,1-.2,1.6-.3.3,0,.9,0,.9.3.1.5.1,1,0,1.5,0,.2-.6.4-1,.4s-1.1-.2-1.3.5c-.1.6.3,1.2.9,1.3h2.5c1.6,0,2.9-1.2,3-2.8h0v-3.7h0v-.7ZM95.3,53.3c-2.6,0-4.3,1.4-6.1,3.1-1.7,1.5-3.4,2.9-5.2,4.3-1.6,1.2-3.3,2.2-4.8,3.4-2.2,1.7-4.9,2.9-7.7,3.3-3.9.8-7.8,1.5-11.7,2.4-2,.4-3.8,1.2-5.7,1.8-.2,0-.5.2-.8.3-.6-2,0-3.6.9-5.3,1.4-2.9,3.7-4.9,6-6.9,2.6-2.1,5.3-4.1,8.1-5.9,3.1-2,6.4-3.4,10-4.1,2.6-.6,5.3-.8,7.9-1.4,2.2-.6,3.8.4,5.4,1.6l.2.2h0c-1.2-.2-2.5-.5-3.8-.7-1.1,0-2.2,0-3.3.4-4.7,2.2-9.3,4.5-13.9,7-3.9,2.2-7.4,5-10.5,8.3,0,0-.2.3-.2.4l3.7-2.8c5.6-4.2,11.7-7.8,18.1-10.7,2.8-1.5,6.1-1.7,9.1-.5.9.4,1.8.6,2.8,1s1,.5,1.5.7c0,0,0,0,0,0h0ZM105.7,91.6c.2,3.2.3,6.3.3,9.5s-.3,4.2-.5,6.3c0,1.1-.2,2.2-.3,3.3-.2,3.1-.8,6.1-1.7,9-.2.8-.4,1.5-.6,2.3-.5,2.1-1.2,2.4-3.1,1.3.3-.6.6-1.2,1-1.8,1.5-2.7,1.2-5.8,1.9-8.7.8-3.2,1.1-6.5,1.6-9.8v-1.9c0-1.4.2-2.9,0-4.3-.2-4-.5-8-.8-11.9-.2-2.3-.4-4.6-.6-6.9-.3-3.4-.7-6.9-.8-10.4,0-2.1,0-4.3.2-6.4,0-.4.3-.8.5-1.2,0,0,0,0,.2,0h0s0,0,.2,0c.4,1.2.7,2.5.9,3.8.2,2.1,0,4.2.2,6.2,0,2.5.4,5,.5,7.5.3,4.7.6,9.4.9,14.1h0ZM135.3,108.4h-.3c-.2-.6-.4-1.2-.5-1.8-.1-1.1-1.1-1.9-2.3-1.8-.2,0-.4,0-.5,0l-1.6.3c-.1-.6-.2-1.2-.3-1.7-.2-1.1-.8-1.3-1.8-.9-.5.2-1,.3-1.5.4-.3,0-.7-.3-1-.5h0c-1.4.4-2.4-.3-3.6-1.1-.9-.6-1.4-1.5-1.4-2.6,0-2.5-1-3.5-3.4-3.9-1.8-.3-2.5-1.2-2.2-3.3.2-.7,0-1.4-.4-2-.3-.4-.7-.9,0-1.3l.6.8c.8-4.2,4-6.7,5.7-10.1-2.7,2.3-4.7,5.2-6.1,8.4-.3-.3-.5-.6-.7-1-.5-.7-.7-1.6-.7-2.5.3-2.5,1.6-4.6,2.4-6.9,1-2.8,1.1-5.8.2-8.6-.5-1.6-1.1-3.2-1.7-4.7-.5-1.2-1.3-2.2-2.2-3.1-.3-.2-.6-.3-1-.3h-3.2c.5-.2,1.1-.5,1.6-.7,1.3-.7,2.9-.9,4.3-.6,1.3.2,2.4.9,3.1,2,.7,1,1.7,1.9,2.8,2.5,1.3.8,2.4,1.9,3.2,3.2.2.3.4.5.7.7l-.4-1.3h.2c.6.6,1.2,1.4,1.8,2.2.3.4.7.9,1,1.3,1.8,2,3.5,4.1,4,7,.3,2.3.3,4.5.1,6.8-.2.9-.5,1.7-.8,2.5-.1.5-.2.9-.2,1.4s-.1,1.3-.3,1.9c-.3.6-.3,1.3,0,1.9.4.7.7,1.4.9,2.1.4,1.3,1.2,2.3,2.3,3,1.6.8,2,2.4,2.6,3.9.5,1.2.7,2.4.8,3.7.1,1.6,0,3.1-.4,4.7h.2Z"/>
  <path class="st0" d="M106,101.1c0,2.1-.3,4.2-.5,6.3,0,1.1-.2,2.2-.3,3.3-.2,3.1-.8,6.1-1.7,9-.2.8-.4,1.5-.6,2.3-.5,2.1-1.2,2.4-3.1,1.3.3-.6.6-1.2,1-1.8,1.5-2.7,1.2-5.8,1.9-8.7.8-3.2,1.1-6.5,1.6-9.8v-1.9c0-1.4.2-2.9,0-4.3-.2-4-.5-8-.8-11.9-.2-2.3-.4-4.6-.6-6.9-.3-3.4-.7-6.9-.8-10.4,0-2.1,0-4.3.2-6.4,0-.4.2-.8.5-1.2,0,0,0,0,.2,0h0s0,0,.2,0c.4,1.2.7,2.5.9,3.8.2,2.1,0,4.2.2,6.2,0,2.5.4,5,.5,7.5.3,4.7.6,9.4.9,14.1.2,3.2.3,6.4.3,9.5h0Z"/>
  <path d="M98,128.4c-.5.6-.9.9-1.6.7-1.4-.6-3-.6-4.3,0-1.2.6-2.6.8-3.9.5h-2.5c-.2,0-.4-.3-.6-.5.2-.2.5-.5.7-.5,1.4,0,2.8.2,4.3.3.3,0,.6-.1.8-.3,2.2-1.3,4.5-1.1,7.1-.2Z"/>
  <path d="M84.4,126.1c-.3.2-.6.5-.9.5-1.4.2-2.8.4-4.1.6-.5,0-.9,0-1.4-.2-.2,0-.4-.4-.4-.6s.4-.5.6-.5c1.9.7,3.7-.2,5.5,0h.7v.2Z"/>
  <path d="M112.1,129.1c-.2.1-.4.4-.7.4h-2.7c-.7,0-1.4-.1-2.1-.1h-1.8c-.2,0-.3-.4-.4-.5.2-.1.3-.4.5-.4.8,0,1.6-.1,2.5-.1,1.5.1,3.1.3,4.6.5v.3h0Z"/>
  <path d="M124,127c-1,.9-1.6,1-2.3.3v-.8c.8,0,1.6-.3,2.2.5h.1Z"/>
  <path d="M114.3,129.3c-.5.2-1,.3-1.5.4,0,0-.4-.3-.4-.4s.2-.4.4-.4h1.4v.4h0Z"/>
  <path d="M116,129.4l-1.1.2v-.6h1.1v.4h0Z"/>
  <path d="M127.2,84.5l-.2.2c-.2-.2-.4-.5-.5-.7-.2-3.7-1.3-7.3-3.1-10.6-.9-1.6-1.7-3.2-2.5-4.8-.2-.4-.3-.8-.3-1.2h.4c3,5.3,6.2,10.6,6.2,17.2h0Z"/>
  <path d="M120.1,76.5c-.5.6-1,1.2-1.5,1.7-1.6,1.5-2.8,3.3-3.6,5.4-.2.6-.3,1.2-.5,1.8h-.4c0-.3,0-.6,0-.9.7-3.2,2.6-6,5.3-7.9.2,0,.5-.2.8,0h0Z"/>
  <path d="M118.7,84.5l-3.2,7.4h-.2c.3-2.8,1.5-5.4,3.4-7.4Z"/>
  <path d="M129.3,75.5l-3.5-1.8c1.2-.9,3.2.2,3.5,1.8Z"/>
  <path d="M125.6,102.4h0Z"/>
  <path d="M126.4,102.5h-.8c-1.1-1.2-1.1-3-.2-4.2v2.2c.3.7.6,1.4,1,2.1h0Z"/>
  <path d="M124.7,97.3c-.2,1.4-.5,2.8-.7,4.2-1-.5-.6-3.2.7-4.2Z"/>
  <path d="M129,78.3c-.7-.6-1.3-1-1.9-1.6s-.2-.5,0-.6c.2-.2.4-.3.7-.2,1,.3,1.6,1.3,1.4,2.4h0Z"/>
</svg>