<svg id="Layer_1" data-name="Layer 1" xmlns="http://www.w3.org/2000/svg" viewBox="0 0 192.37 181.84"><circle cx="98.33" cy="90.92" r="77.08" fill="#f6f6ca"/><path d="M46.77,42.56q-7.41-3.69-13.46-7l8,7.33c.68.63,1.89,1.63,3.65,3s3.08,2.52,3.6,3a.59.59,0,0,1,.13.61,1.6,1.6,0,0,1-.4.76c-.31.33-.6.39-.86.15l-.66-.7c-.48-.51-.81-.84-1-1q-1.29-1.18-4.21-3.61c-2-1.64-3.18-2.65-3.59-3l-3.1-2.86c-.5-.47-1.23-1.18-2.17-2.13S31.19,35.56,30.56,35l-.15-.13q-1.21-1.12-.72-1.65.28-.31,1.8.18a64.09,64.09,0,0,1,8.15,3.73q3.27,1.71,8.26,4.56l2,1.15.14.09Q47.72,40.74,45.9,39L41.72,35l-7.18-6.61a.94.94,0,0,1,.1-1.34c.41-.43.92-.36,1.55.22l.15.13a2.05,2.05,0,0,0,.57.8c1,.91,2.45,2.3,4.4,4.18s3.44,3.31,4.45,4.23l7.4,6.82a1.87,1.87,0,0,1,.55.89.79.79,0,0,1-.1.82Q53.16,45.65,46.77,42.56Z" fill="#231f20"/><path d="M60.14,39.1a.92.92,0,0,1-.82-.44A27.35,27.35,0,0,0,57,36.23l-.53-.46-2.87,1.66c.22.47.71,1.39,1.48,2.74a4.67,4.67,0,0,1,.85,2.07.82.82,0,0,1-.33.65,1.25,1.25,0,0,1-.73.26.75.75,0,0,1-.63-.28l-.06-.17,0-.12a145.68,145.68,0,0,0-7.86-15.14c0-.07-.14-.19-.25-.37l-.51-.75c-.46-.67-.81-1.23-1-1.65A2.54,2.54,0,0,1,44,23.58l.87-.7a1.51,1.51,0,0,1,.76-.33.72.72,0,0,1,.64.27,57.62,57.62,0,0,0,5.19,5.4,66.22,66.22,0,0,1,5,5.16,6.49,6.49,0,0,0,.77.7,5.86,5.86,0,0,1,.74.67c.1.12.6.57,1.5,1.34A15.45,15.45,0,0,1,61,37.51l0,0a.86.86,0,0,1,.17,1A2.13,2.13,0,0,1,60.14,39.1Zm-5.47-5a71.58,71.58,0,0,0-5.15-5.61L47.12,26c2.49,4.63,4.41,8.09,5.79,10.37A8.48,8.48,0,0,0,55.5,35,6.76,6.76,0,0,1,54.67,34.1Z" fill="#231f20"/><path d="M63.84,35.92l-.71-1.07c-.21-.31-.44-.66-.68-1.05l-.56-1c-.19-.17-1.59-2.14-4.22-5.89s-4.31-6.17-5-7.25a6,6,0,0,1-2.28.94.74.74,0,0,1-.62-.31.58.58,0,0,1,0-.59,1.34,1.34,0,0,1,.49-.56,21,21,0,0,1,2-1.06,19,19,0,0,0,2-1l.23-.14.22-.14c.58-.36,1-.31,1.29.14a.76.76,0,0,1,.06.72,1.28,1.28,0,0,1-.52.61,6.14,6.14,0,0,1-.78.36l-.63.24.06.15.06.16c1,1.67,2.83,4.23,5.4,7.68,2.41,3.24,4.21,5.81,5.37,7.7a.86.86,0,0,1,.07.77,1.16,1.16,0,0,1-.5.66Z" fill="#231f20"/><path d="M70.34,33.08a2.66,2.66,0,0,1-1.34-.5,8.58,8.58,0,0,1-2.22-2.44,26,26,0,0,1-1.69-3.22c-1-2.15-2.24-4.78-3.64-7.92l-1.07-2.3a6,6,0,0,1-.3-.59c-.38-.75-.61-1.2-.68-1.36,0-.5.11-.81.35-.92a.9.9,0,0,1,.89.26,2.52,2.52,0,0,1,.81,1l3.67,8.2a33,33,0,0,0,1.63,3.1c.88,1.58,1.43,2.62,1.64,3.1.67,1.48,1.63,1.94,2.9,1.38q2.16-1-5.08-17.18L65.46,12l-.12-.27a.61.61,0,0,1-.14-.23.78.78,0,0,1-.07-.6,1,1,0,0,1,.57-.45.88.88,0,0,1,.72-.05,1,1,0,0,1,.52.4,4.53,4.53,0,0,1,.34.68c.15.32.35.84.6,1.57a11.94,11.94,0,0,0,.55,1.56,11.94,11.94,0,0,1,.49,1.27l.51,1.29.11.24a2,2,0,0,1,.15.26q6,13.38,2.09,15.11A2.84,2.84,0,0,1,70.34,33.08Z" fill="#231f20"/><path d="M81.81,27.63a17.71,17.71,0,0,1-2-3.1l-.54-1c-1.51-2.83-2.41-4.44-2.7-4.81l-.38.11c.18.62.33,1.18.46,1.69l.52,1.74a29.23,29.23,0,0,0,2.56,6.44l-.1.95-.88.27-.56-.36-.59-2.13c-.56-1.89-1.51-4.75-2.84-8.55C73.39,14.81,72.45,12,72,10.31q-.45-1.53.6-1.83a4.43,4.43,0,0,1,3.06.06,3.12,3.12,0,0,1,1.82,2.14l.66,2.22A4.45,4.45,0,0,1,78.26,14a5.19,5.19,0,0,1-.05,1.1L78,16.45l-.23,1.1.39.71,1.1,2.12c.78,1.53,1.46,2.77,2,3.7a15.47,15.47,0,0,0,1.83,2.45l.3.33a2.54,2.54,0,0,1,.62.92.88.88,0,0,1,0,.6.64.64,0,0,1-.44.39Q82.83,29,81.81,27.63ZM76.49,15a10.19,10.19,0,0,0-.36-3,7,7,0,0,0-.82-1.82,1.44,1.44,0,0,0-.75-.62,1.56,1.56,0,0,0-1,0l0,.18,0,.31,1.17,3.71c.37,1.08.74,2.27,1.12,3.56A3.17,3.17,0,0,0,76.49,15Z" fill="#231f20"/><path d="M86.39,27.78a1,1,0,0,1-.49-.65l-.13-.85-.11-.65a6.69,6.69,0,0,1-.14-.68c-.07-.46-.22-1.15-.43-2.07l-.4-2.08Q84.44,19.21,84,16c-.21-1.9-.42-3.5-.62-4.78,0-.3-.16-.75-.32-1.35s-.27-1.07-.31-1.35c-.25-1.55.08-2.39,1-2.54a9.21,9.21,0,0,1,2.56,0c1,.13,1.51.39,1.57.78a.81.81,0,0,1-.18.65,2,2,0,0,1-.59.55,13.41,13.41,0,0,0-2.59-.26c.08.32.16.79.26,1.4.14.87.25,1.65.34,2.35.1,1.05.19,1.84.28,2.36l.18.51.51-.12a5.09,5.09,0,0,1,.65-.14c1-.16,1.61.06,1.71.67a.76.76,0,0,1-.2.65,1.15,1.15,0,0,1-.71.36,5.07,5.07,0,0,1-.92.08l-.82.13c.14.56.29,1.38.46,2.47s.32,2.06.44,2.94c.14,1.33.27,2.32.37,3a10.54,10.54,0,0,0,.36,1.81l1.07-.2c.37-.08.81-.16,1.33-.25.83-.13,1.28.07,1.36.59a.78.78,0,0,1-.29.76,1.91,1.91,0,0,1-1,.4L87.2,28A1.19,1.19,0,0,1,86.39,27.78Z" fill="#231f20"/><path d="M103.33,26.15v-.1a22.62,22.62,0,0,0-.42-3.92c-.26-1.44-.67-3.18-1.21-5.24-.42-1.53-.77-2.91-1-4.14l-.58,13a1.36,1.36,0,0,1-.22.77.83.83,0,0,1-.72.21.83.83,0,0,1-.62-.27,1,1,0,0,1-.2-.66v-.26l.51-9.69c.17-2.85.33-6.07.5-9.66l.18-4a.71.71,0,0,1,.19-.54,1.1,1.1,0,0,1,.7-.11,3.57,3.57,0,0,1,2.65,1.3,5.71,5.71,0,0,1,1.19,2.83,7.37,7.37,0,0,1,.06,1.52,7.65,7.65,0,0,1-.13,1.09q-.11.58-.15.75a6.85,6.85,0,0,1-.34,1l-.33.84-.44.91-.37.84a17.91,17.91,0,0,0,.28,3c.2,1.22.43,2.35.69,3.4.19.73.53,2,1,3.68l.83,2.94v.07a4,4,0,0,1-.15,1,.62.62,0,0,1-.71.5C104.09,27.08,103.7,26.76,103.33,26.15ZM101.84,10l.62-2.81a1.83,1.83,0,0,0,.05-.46,7.84,7.84,0,0,0-.26-2.23,3.61,3.61,0,0,0-.46-1,1,1,0,0,0-.63-.47L101,6.32c-.13,1.47-.22,2.61-.25,3.43s0,1.27,0,1.51A16.49,16.49,0,0,0,101.84,10Z" fill="#231f20"/><path d="M107.13,27.26a1,1,0,0,1-.26-.78l.15-.84.11-.65c0-.2,0-.43.08-.69.08-.46.17-1.16.26-2.1l.29-2.09c.18-1.07.48-2.64.91-4.74.4-1.87.72-3.44.93-4.72a12.43,12.43,0,0,0,.14-1.39c0-.64.09-1.1.13-1.38.26-1.54.85-2.23,1.76-2.08a9.4,9.4,0,0,1,2.42.85c.89.44,1.31.86,1.24,1.25a.79.79,0,0,1-.38.55,1.85,1.85,0,0,1-.74.33,12.84,12.84,0,0,0-2.36-1.07c0,.33-.1.8-.2,1.4-.15.87-.3,1.65-.44,2.34-.24,1-.4,1.8-.49,2.33v.53l.52.06a4.86,4.86,0,0,1,.66.08c1,.17,1.51.57,1.41,1.17a.75.75,0,0,1-.4.55,1.15,1.15,0,0,1-.79.12,4.53,4.53,0,0,1-.9-.22l-.81-.14c-.06.57-.17,1.4-.36,2.49s-.36,2.06-.53,2.92q-.43,2-.6,2.94a10.22,10.22,0,0,0-.25,1.84l1.08.15c.38,0,.82.1,1.34.19.83.14,1.19.47,1.11,1a.77.77,0,0,1-.53.63,1.94,1.94,0,0,1-1,.08l-2.77-.47A1.14,1.14,0,0,1,107.13,27.26Z" fill="#231f20"/><path d="M116.2,29.23a2,2,0,0,1-1.17,0,.85.85,0,0,1-.56-.52,1.15,1.15,0,0,1,0-.79c.52-1.77,1.29-4.12,2.31-7,1.06-3.1,1.82-5.44,2.28-7l.07-.22c.26-1.37.49-2.37.69-3,.59-2,1.25-2.9,2-2.68a.84.84,0,0,1,.49.4.82.82,0,0,1,.07.63q-.12.38-.45,1.17a10.62,10.62,0,0,0-.45,1.18c-.42,1.41-.79,2.69-1.1,3.83s-.68,2.4-1.09,3.81a4.35,4.35,0,0,0-.55,1.28l-.12.38-.8,2.49c-.26.72-.53,1.56-.81,2.51-.43,1.45-.3,2.28.4,2.49l.21.05a2.55,2.55,0,0,1,.4.1,5.91,5.91,0,0,1,.74.18c1.13.34,1.61.82,1.42,1.45a.67.67,0,0,1-.44.46,1.54,1.54,0,0,1-.78.08A9.73,9.73,0,0,0,116.2,29.23Z" fill="#231f20"/><path d="M123.09,31.6a4.13,4.13,0,0,1-.48-1.83,12.89,12.89,0,0,1,.71-4.49,32.26,32.26,0,0,1,1.5-4.06,5.25,5.25,0,0,1,.3-.59l.24-.55c0-.09.06-.15,0-.16l.24-.54,1-2.09q.47-1,1.62-3a11.4,11.4,0,0,1,1.95-2.49,2.6,2.6,0,0,1,.95-.67,1.17,1.17,0,0,1,.9,0,5.69,5.69,0,0,1,2,1.41,5.08,5.08,0,0,1,1.08,1.95,7.68,7.68,0,0,1,.19,2.31,12.52,12.52,0,0,1-.44,2.6,20.53,20.53,0,0,1-1,2.77l-.1.24c-.28.62-.53,1.18-.73,1.69l-.74,1.73q-3.9,8.67-7.93,6.86A2.54,2.54,0,0,1,123.09,31.6Zm2.86-.17a3,3,0,0,0,1.22-.87,12.84,12.84,0,0,0,2.18-3A28.59,28.59,0,0,0,130.69,25c.41-.9.87-2.12,1.39-3.64s1-2.78,1.37-3.55l.25-.54a3.59,3.59,0,0,0,.12-2.33,2.41,2.41,0,0,0-1.35-1.62,1.49,1.49,0,0,0-1.89.57,8.74,8.74,0,0,0-1.38,2.27c-.17.38-.3.71-.4,1l-.36.81-.69,1.36c-.23.4-.45.85-.68,1.35-.49,1.09-.94,2.18-1.36,3.27a29.45,29.45,0,0,0-1.37,4.66c-.34,1.63-.2,2.59.42,2.87A1.53,1.53,0,0,0,126,31.43Z" fill="#231f20"/><path d="M134.69,37.87a1,1,0,0,1,.15-.92,27.1,27.1,0,0,0,1.52-3l.26-.65-2.5-2.16c-.38.35-1.09,1.12-2.11,2.29a4.48,4.48,0,0,1-1.68,1.48.74.74,0,0,1-.71-.1,1.18,1.18,0,0,1-.49-.59.78.78,0,0,1,.05-.7l.14-.1.1-.1A144.24,144.24,0,0,0,141.14,20.9a4.33,4.33,0,0,1,.26-.36c.13-.16.31-.41.54-.73.49-.65.9-1.16,1.22-1.53a2.57,2.57,0,0,1,.9-.72l.95.6a1.4,1.4,0,0,1,.56.6.68.68,0,0,1,0,.69,59.67,59.67,0,0,0-3.39,6.68,62.94,62.94,0,0,1-3.24,6.38,7.94,7.94,0,0,0-.41,1,5.76,5.76,0,0,1-.39.92c-.08.13-.34.75-.77,1.85a16.19,16.19,0,0,1-.84,1.89l0,0a.87.87,0,0,1-.94.5A2.18,2.18,0,0,1,134.69,37.87Zm2.93-6.82a67.25,67.25,0,0,0,3.6-6.7l1.56-3.08q-5.34,5.81-7.9,8.87a8.25,8.25,0,0,0,2.18,2A6.68,6.68,0,0,1,137.62,31.05Z" fill="#231f20"/><path d="M139.83,36.36l3.41-4q1.51-1.74,3.37-3.94c.45-.53,1.1-1.41,1.95-2.62s1.54-2.09,1.77-2.35a1,1,0,0,1,.77-.35,1.12,1.12,0,0,1,.81.26,5.09,5.09,0,0,1,1.38,1.82,6.09,6.09,0,0,1,.52,2.32,10.33,10.33,0,0,1-2.41,6.91,7.8,7.8,0,0,1-.53.58l-.6.66-1.17,1.39a31.7,31.7,0,0,1-2.25,2.46,10.37,10.37,0,0,1-2.47,1.76,7.77,7.77,0,0,1-3.06.66,9.14,9.14,0,0,1-1.8-.22l-1.82-1.53Q137,39.67,139.83,36.36Zm1.22,4a3.08,3.08,0,0,0,1.34-.11,6.17,6.17,0,0,0,1.33-.62,10.62,10.62,0,0,0,1.32-.94,19.93,19.93,0,0,0,2.24-2.08c.19-.19.44-.48.77-.87q6.42-7.62,3.75-10.43a22.83,22.83,0,0,0-2.39,2.47q-1.35,1.59-4.48,5.72-2.77,3.66-4.52,5.73l-.51.6A2.26,2.26,0,0,0,141.05,40.39Z" fill="#231f20"/><path d="M144.7,46.46a1.06,1.06,0,0,1,.29-.77l.63-.58.49-.44c.14-.15.3-.31.5-.49s.84-.81,1.5-1.49l1.52-1.47q1.2-1.08,3.64-3.15,2.22-1.83,3.66-3.14a12.4,12.4,0,0,0,1-1c.43-.48.75-.81,1-1,1.16-1.05,2.05-1.23,2.67-.55a9,9,0,0,1,1.38,2.16c.43.9.49,1.49.2,1.75a.81.81,0,0,1-.64.2,2.09,2.09,0,0,1-.79-.2,13.25,13.25,0,0,0-1.19-2.3c-.23.24-.57.56-1,1-.65.59-1.25,1.11-1.78,1.57-.83.65-1.44,1.16-1.83,1.52l-.33.42.38.37a5.16,5.16,0,0,1,.47.47c.71.78.83,1.38.38,1.79a.74.74,0,0,1-.66.19,1.16,1.16,0,0,1-.69-.39,6.58,6.58,0,0,1-.57-.73l-.55-.61c-.4.41-1,1-1.82,1.73s-1.56,1.39-2.22,2c-1,.85-1.81,1.5-2.3,1.94a10.06,10.06,0,0,0-1.32,1.29l.75.79c.27.26.58.59.93,1,.56.62.65,1.11.26,1.46a.79.79,0,0,1-.81.17,1.91,1.91,0,0,1-.85-.58L145,47.23A1.17,1.17,0,0,1,144.7,46.46Z" fill="#231f20"/><path d="M152.9,49.4l4.35-2.88q1.92-1.27,4.29-2.9c.59-.39,1.45-1.06,2.59-2s2-1.6,2.33-1.79a1,1,0,0,1,.83-.13,1.14,1.14,0,0,1,.72.46,5.07,5.07,0,0,1,.84,2.13,6,6,0,0,1-.12,2.38,10.13,10.13,0,0,1-2.35,4.4,10.56,10.56,0,0,1-1.82,1.61,6.38,6.38,0,0,1-.67.41l-.76.48-1.49,1a31.06,31.06,0,0,1-2.83,1.77,10.06,10.06,0,0,1-2.85,1,7.59,7.59,0,0,1-3.13-.18,8.71,8.71,0,0,1-1.67-.7l-1.34-2C149.5,52.08,150.52,51,152.9,49.4Zm.1,4.21a3,3,0,0,0,1.32.26,6.81,6.81,0,0,0,1.45-.24,10,10,0,0,0,1.52-.55A18.37,18.37,0,0,0,160,51.67c.24-.13.56-.34,1-.62q8.22-5.62,6.4-9.06a24.09,24.09,0,0,0-3,1.75q-1.71,1.17-5.85,4.31-3.66,2.78-5.89,4.31l-.65.44A2.18,2.18,0,0,0,153,53.61Z" fill="#231f20"/><path d="M51.09,165.66a.71.71,0,0,1,.09-.6l1.74-2.69c.81-1.17,1.41-2.06,1.78-2.66a20.37,20.37,0,0,0,1.24-2.57,18.23,18.23,0,0,1,1.24-2.61,13.83,13.83,0,0,0,1.21-2.63,24.55,24.55,0,0,0,.85-3.12,23.31,23.31,0,0,1,.85-3.07,13.38,13.38,0,0,1,1.2-2.61.48.48,0,0,1,.44-.2,1,1,0,0,1,.56.16c.2.12.27.46.19,1a13.31,13.31,0,0,1-.63,2.44c-.34,1-.54,1.61-.61,1.8l-.84,2.16-.49,1.41a13.11,13.11,0,0,0,.88-1.09c1.07-1.48,2-2.69,2.82-3.61a8.71,8.71,0,0,1,1.46-1.35c.44-.29.79-.36,1.06-.19.5.31.69.56.58.75a29,29,0,0,1-3.6,4.29A29,29,0,0,0,59.49,155l-.33.42a1.73,1.73,0,0,0-.34.49l-.28.44c-.5.81-1.24,2.06-2.22,3.76l-2.26,3.76-.34.68-.37.7-.43.71a.89.89,0,0,1-.64.4,1.21,1.21,0,0,1-.82-.18A.84.84,0,0,1,51.09,165.66Z" fill="#231f20"/><path d="M60.76,170.88a4,4,0,0,1-.49-1.82,13.29,13.29,0,0,1,.71-4.49,31.85,31.85,0,0,1,1.5-4.07,4.54,4.54,0,0,1,.3-.59l.24-.54c0-.1.06-.16,0-.17l.24-.54,1-2.09c.31-.64.85-1.62,1.62-3a11.17,11.17,0,0,1,2-2.49,2.41,2.41,0,0,1,1-.67,1.1,1.1,0,0,1,.89,0,5.71,5.71,0,0,1,2,1.4,5.08,5.08,0,0,1,1.08,1.95,7.68,7.68,0,0,1,.19,2.31,11.5,11.5,0,0,1-.44,2.61,22.33,22.33,0,0,1-1,2.76l-.11.24c-.28.62-.52,1.19-.72,1.7l-.74,1.73Q66,173.83,62,172A2.61,2.61,0,0,1,60.76,170.88Zm2.86-.16a3.08,3.08,0,0,0,1.22-.88,13,13,0,0,0,2.18-3c.56-1,1-1.84,1.34-2.58.4-.9.86-2.12,1.37-3.65s1-2.78,1.37-3.54l.25-.55a3.59,3.59,0,0,0,.12-2.33,2.41,2.41,0,0,0-1.35-1.62,1.51,1.51,0,0,0-1.89.57,8.65,8.65,0,0,0-1.38,2.28c-.17.38-.3.71-.4,1l-.36.82-.68,1.36a13.24,13.24,0,0,0-.68,1.36c-.49,1.08-.94,2.17-1.36,3.26A29.52,29.52,0,0,0,62,167.85c-.34,1.63-.21,2.58.42,2.86A1.58,1.58,0,0,0,63.62,170.72Z" fill="#231f20"/><path d="M73.53,175.8a2.75,2.75,0,0,1-.72-1.24,8.37,8.37,0,0,1-.17-3.29,24.74,24.74,0,0,1,.72-3.57q.84-3.47,2.18-8.43l.63-2.47a6.15,6.15,0,0,1,.14-.64c.18-.82.29-1.31.34-1.48.31-.4.59-.56.85-.49s.43.32.53.76a2.82,2.82,0,0,1,0,1.32l-2.34,8.66a34.84,34.84,0,0,0-.69,3.44c-.32,1.78-.55,2.93-.69,3.44-.43,1.57,0,2.54,1.37,2.9q2.3.61,6.93-16.52l.48-1.78.08-.29a.63.63,0,0,1,0-.26.76.76,0,0,1,.33-.51,1,1,0,0,1,.73,0,.9.9,0,0,1,.59.41,1,1,0,0,1,.15.64,6.09,6.09,0,0,1-.16.74c-.1.34-.27.88-.54,1.6a12.14,12.14,0,0,0-.56,1.56,13.27,13.27,0,0,1-.41,1.29l-.43,1.32-.07.25a1.77,1.77,0,0,1,0,.3q-3.82,14.15-7.94,13A2.9,2.9,0,0,1,73.53,175.8Z" fill="#231f20"/><path d="M92.6,178.85a.94.94,0,0,1-.46-.84q.75-.7.81-3.84c0-1.26,0-3.08-.17-5.49s-.24-4.09-.21-5.41l.1-1.82c0-.52.06-1.13.08-1.81a10.91,10.91,0,0,0-.28-2.35,9.67,9.67,0,0,1-.35-2.09c0-.77.87-1.13,2.56-1.1h.5a4.79,4.79,0,0,1,3.08,1.16A7.15,7.15,0,0,1,100,158a16.16,16.16,0,0,1,.78,3.32c.11,1.24.15,2.21.14,2.91l0,1,0,1.56a.48.48,0,0,0-.07.26,1.43,1.43,0,0,0,0,.39,1.55,1.55,0,0,1,0,.33,12.66,12.66,0,0,1-.37,2.52,20.13,20.13,0,0,1-1,3A13,13,0,0,1,96,178.36a3.6,3.6,0,0,1-2.3.81A2.17,2.17,0,0,1,92.6,178.85Zm4.06-3.73A11.43,11.43,0,0,0,98.15,172a24.58,24.58,0,0,0,1-6.51,26,26,0,0,0-.25-3.9,8.86,8.86,0,0,0-1.47-3.73,3.85,3.85,0,0,0-1.39-1.27,4.18,4.18,0,0,0-1.93-.49v0q-.06,3,.2,9c.18,4,.24,7,.2,9l-.07,3.13A6.88,6.88,0,0,0,96.66,175.12Z" fill="#231f20"/><path d="M107.16,178.88a1,1,0,0,1-.47-.67l-.11-.85-.08-.66c0-.19-.08-.42-.12-.68,0-.46-.17-1.15-.35-2.08l-.33-2.09c-.13-1.07-.3-2.67-.49-4.8-.15-1.91-.3-3.51-.46-4.79,0-.31-.13-.76-.27-1.37a12,12,0,0,1-.27-1.36c-.19-1.55.17-2.38,1.09-2.5a8.85,8.85,0,0,1,2.56.12c1,.17,1.5.45,1.55.84a.86.86,0,0,1-.21.64,2.06,2.06,0,0,1-.61.52,13.09,13.09,0,0,0-2.57-.34c.06.32.13.79.2,1.4.11.87.2,1.66.26,2.36.07,1.06.13,1.85.2,2.37l.16.52.52-.1a5.52,5.52,0,0,1,.65-.12c1-.13,1.61.11,1.69.73a.78.78,0,0,1-.22.64,1.17,1.17,0,0,1-.73.34,5.48,5.48,0,0,1-.92.05l-.82.1c.11.56.24,1.39.37,2.48s.25,2.07.34,2.95c.1,1.34.19,2.34.27,3a9.41,9.41,0,0,0,.29,1.83l1.08-.17c.36-.07.81-.13,1.33-.2q1.25-.15,1.35.63a.8.8,0,0,1-.33.76,1.88,1.88,0,0,1-1,.37l-2.79.34A1.11,1.11,0,0,1,107.16,178.88Z" fill="#231f20"/><path d="M120,176.7a4.93,4.93,0,0,1-1.32-.16q-2.49-.84-4-7l-.22-.86-.25-1-.19-.76c-.21-.86-.39-1.62-.54-2.3s-.29-1.42-.42-2.23a12.27,12.27,0,0,1-.22-2.1,10.44,10.44,0,0,1,.19-1.94,4,4,0,0,1,.59-1.67,4.68,4.68,0,0,1,1.24-1.23,5,5,0,0,1,1.89-.85,1.12,1.12,0,0,1,.8,0,.79.79,0,0,1,.4.51.93.93,0,0,1-.07.63.74.74,0,0,1-.42.41l-1.51.38c-.42.1-.73.46-.92,1.08a6.1,6.1,0,0,0-.15,2.25,23.52,23.52,0,0,0,.55,3.94l0,.16.7,3.09q.28,1.4.72,3.12a16.69,16.69,0,0,0,.59,2,6.49,6.49,0,0,0,1,1.79,2.45,2.45,0,0,0,1.63.92,3,3,0,0,0,1.1-.07,1.22,1.22,0,0,0,.64-.44,1.42,1.42,0,0,1,.74,0,.59.59,0,0,1,.4.46c.21.83-.27,1.39-1.45,1.69A6.23,6.23,0,0,1,120,176.7Z" fill="#231f20"/><path d="M125.82,173.74c-.18-.5.05-.86.69-1.1l.34-.13.32-.08c.16-.06.26-.15.28-.28a1.15,1.15,0,0,0-.11-.59c-.13-.35-.35-.89-.67-1.62q-.36-.7-1.2-2.58-2-4.63-2.92-7.05c-.21-.58-.39-1.11-.55-1.59l-.55-1.59a13.56,13.56,0,0,0-.72-1.67,4.24,4.24,0,0,1-.67.39.71.71,0,0,1-1-.47.84.84,0,0,1,.23-.82,3.61,3.61,0,0,1,1-.84,12.17,12.17,0,0,1,2.1-1.06,1,1,0,0,1,.74,0,.86.86,0,0,1,.48.51.94.94,0,0,1,0,.66.69.69,0,0,1-.42.43,1.32,1.32,0,0,1-.32.09l-.25.09a.69.69,0,0,0-.4.3.79.79,0,0,0,0,.57q1.11,3,3.71,8.9c.32.73.8,1.79,1.46,3.19a30.56,30.56,0,0,1,1.23,2.85l.43,1.18a4.73,4.73,0,0,1,.61-.26c.87-.32,1.43-.12,1.7.6l.07.19-.58.81-.2.09c-.11.05-.32.14-.63.25-.64.29-1.06.46-1.24.53C127.06,174.33,126.05,174.36,125.82,173.74Z" fill="#231f20"/><path d="M134,167.19l-2.34-4.66q-1-2.07-2.36-4.62c-.32-.62-.88-1.56-1.68-2.8s-1.33-2.22-1.5-2.54a1,1,0,0,1,0-.84,1.12,1.12,0,0,1,.55-.65,5.08,5.08,0,0,1,2.21-.58,6,6,0,0,1,2.35.41,10.4,10.4,0,0,1,5.45,4.86,5.76,5.76,0,0,1,.34.72l.38.8.84,1.62c.64,1.25,1.11,2.25,1.41,3a10.25,10.25,0,0,1,.68,2.95,7.62,7.62,0,0,1-.56,3.08,9.38,9.38,0,0,1-.89,1.58l-2.11,1.09Q136,171,134,167.19Zm4.19.41a3.16,3.16,0,0,0,.41-1.28,6.3,6.3,0,0,0-.07-1.46,10.2,10.2,0,0,0-.35-1.58,20.79,20.79,0,0,0-1.08-2.87c-.1-.24-.27-.59-.5-1q-4.59-8.85-8.21-7.45a21.07,21.07,0,0,0,1.37,3.15q1,1.85,3.58,6.33,2.31,4,3.56,6.37l.36.7A2.29,2.29,0,0,0,138.17,167.6Z" fill="#231f20"/><path d="M147.82,164.16a1,1,0,0,1-.72-.37l-.5-.7-.38-.54a4.6,4.6,0,0,1-.43-.55c-.27-.37-.7-.93-1.3-1.66l-1.28-1.69q-.93-1.32-2.7-4-1.56-2.41-2.68-4c-.18-.25-.47-.61-.88-1.08s-.72-.84-.88-1.07c-.91-1.27-1-2.18-.23-2.71a8.88,8.88,0,0,1,2.31-1.11c.95-.32,1.53-.32,1.76,0a.86.86,0,0,1,.13.66,2.32,2.32,0,0,1-.3.76,13.49,13.49,0,0,0-2.43.91c.21.25.5.63.85,1.14.51.71,1,1.37,1.35,2,.56.9,1,1.57,1.29,2l.39.37.41-.33a6,6,0,0,1,.52-.41c.86-.61,1.47-.66,1.83-.16a.79.79,0,0,1,.11.67,1.18,1.18,0,0,1-.48.64,4.88,4.88,0,0,1-.79.48l-.68.48c.37.44.87,1.11,1.51,2s1.2,1.71,1.69,2.44c.72,1.13,1.27,2,1.65,2.51a10.51,10.51,0,0,0,1.13,1.47l.87-.66c.29-.23.65-.51,1.08-.81.68-.48,1.18-.51,1.48-.08a.8.8,0,0,1,.08.82,2,2,0,0,1-.68.78L148.63,164A1.13,1.13,0,0,1,147.82,164.16Z" fill="#231f20"/><path d="M137.12,103.69c-.19-1.39-.15-2.84-1.28-3.94-.12-.11-.08-.39-.09-.6a5,5,0,0,0-2.81-4.41c-.29-.15-.69-.28-.8-.53-.77-1.82-2-3.5-1.32-5.72.33-1,.21-2.11.53-3.09a12.15,12.15,0,0,0,.56-5.74c-.28-1.76-1-3.48-.62-5.33a1,1,0,0,0-.21-.66c-.57-.94-1.15-1.87-1.76-2.78-1-1.41-1.92-2.83-2.92-4.21a12,12,0,0,0-2.81-3c-2.18-1.53-4.58-2.85-6.08-5.21-.25-.39-4.59-.85-6.17-.59a11,11,0,0,0-6.53,3.37c-.3-1.78-.59-3.56-.94-5.32a1,1,0,0,0-.28-.44.55.55,0,0,0-.68-.08,1.11,1.11,0,0,0-.46.45c-.39,1.13-.69,2.29-1.11,3.74-.4-.64-.72-1.06-1-1.52-1.27-2.35-2.44-4.8-4.53-6.53a52.53,52.53,0,0,0-5.44-3.81,3.43,3.43,0,0,0-2-.53,75.65,75.65,0,0,0-7.67.89c-9.28,1.79-17,6.52-23.53,13.16-3.3,3.34-5.41,7.23-5.43,12.05a3.34,3.34,0,0,0,.13.66,1.53,1.53,0,0,0,.34-.08A28.43,28.43,0,0,1,60,71.19c3.63-.73,7.28-1.35,10.88-2.17A28.08,28.08,0,0,0,79,65.87a79.57,79.57,0,0,0,6.69-4.33c2.4-1.78,4.63-3.78,6.91-5.72a2.42,2.42,0,0,1,3.59.46,33.57,33.57,0,0,1,5.22,17.11c.16,3.28.41,6.57.66,9.85.16,2.12.46,4.24.57,6.36.13,2.79.14,5.58.19,8.37,0,1,0,2.07,0,3.1a21.2,21.2,0,0,1-.1,2.65c-.2,1.49-.54,3-.77,4.44-.44,2.89-.88,5.78-1.26,8.68a15.61,15.61,0,0,1-2,5.76,20.78,20.78,0,0,0-2-1c-1.22-.48-1.79-.22-2.38.94a3.13,3.13,0,0,1-3,1.43c-.58-.09-1.46-.14-1.73.18a2.66,2.66,0,0,1-1.86.8,9.8,9.8,0,0,0-1.75.53c-.14.06-.19.39-.21.6,0,0,.29.21.41.18,1.22-.3,2.43-.64,3.65-.95a2.69,2.69,0,0,1,.85-.06c.52,0,1.15.34,1.56.14,1.31-.64,2.92-.9,3.65-2.58.53.36,1.13.57,1.42,1,1.2,1.72,3.07,1.88,4.86,2.12a2.89,2.89,0,0,0,2-.7c1.57-1.43,1.42-.76,2.45.27.1.1.12.31.23.37.34.18.76.51,1,.44a6.24,6.24,0,0,1,4.14.55,9.62,9.62,0,0,0,5.26.92c.58-.1,1.18,0,1.75-.13a6.4,6.4,0,0,0,1.25-.58c-.33-.29-.62-.76-1-.83a20.45,20.45,0,0,0-2.22-.05,13.09,13.09,0,0,1-2.67-.32c-1.83-.52-3.54-1.55-5.54-1.29a1.21,1.21,0,0,1-1.38-.81,1.8,1.8,0,0,0-1.45-1.15c-.57-.11-1.15-.17-1.79-.27a3.62,3.62,0,0,1,0-.55,23.68,23.68,0,0,1,.84-2.67c1.1-2.53,1-5.23,1.24-7.88.13-1.62.36-3.23.52-4.84a37.87,37.87,0,0,0,.3-4c0-3.11-.18-6.22-.3-9.33-.09-2.34-.19-4.68-.34-7q-.44-6.78-.91-13.57a32,32,0,0,0-.34-3.53,8.33,8.33,0,0,1,.69-5.41c.49-1,1-1.9,2.41-1.84a13.42,13.42,0,0,0,2.29-.13,1.69,1.69,0,0,1,1.6.55c.42.44,1,1,1,1.51a5.67,5.67,0,0,0,1,3.15,11.05,11.05,0,0,1,.49,10.47c-.68,1.6-1.42,3.18-2,4.8s-1.05,3.15.36,4.61c.27.28.8.68.39,1.31a2,2,0,0,0,.09,2.33,4,4,0,0,1,.61,2.25c0,2.62.58,3.18,3.19,3.63,1,.17,2,.63,2.14,1.72a7,7,0,0,0,1.94,3.79c1.28,1.6,3,1.89,4.74,2.3a9.32,9.32,0,0,0,2.61-.13c0,.24,0,.51.06.77s.08.53.11.8a1.15,1.15,0,0,0,1.51,1.13,12.39,12.39,0,0,1,1.58-.26c.3,0,.85.12.88.28a2.9,2.9,0,0,1,0,1.52c-.08.23-.65.37-1,.38-.5,0-1.05-.21-1.26.46a1.09,1.09,0,0,0,1,1.3,21.18,21.18,0,0,0,2.39,0,2.93,2.93,0,0,0,3-2.76.06.06,0,0,0,0,0c.05-.33.07-.64.09-.93a9.7,9.7,0,0,0,0-1.32l0-.8a5.37,5.37,0,0,0,0-.7ZM95.3,53.35c-2.61-.12-4.31,1.44-6.06,3.08A67.21,67.21,0,0,1,84,60.72c-1.55,1.18-3.28,2.16-4.78,3.4a16.72,16.72,0,0,1-7.65,3.34c-3.9.78-7.82,1.5-11.7,2.38-2,.44-3.83,1.19-5.74,1.81-.25.08-.48.2-.79.32-.59-2,.1-3.63.89-5.29,1.36-2.87,3.7-4.93,6-6.92a82.44,82.44,0,0,1,8.07-5.93,29.87,29.87,0,0,1,10-4.11c2.61-.59,5.33-.75,7.92-1.41,2.25-.57,3.83.41,5.44,1.61l.2.18a.58.58,0,0,1,.07.11,28.52,28.52,0,0,0-3.76-.78,7,7,0,0,0-3.3.4c-4.68,2.23-9.35,4.5-13.89,7A45,45,0,0,0,60.5,65.08a.54.54,0,0,0-.18.42L64,62.73A97,97,0,0,1,82.09,52a11,11,0,0,1,9.1-.52c.9.37,1.85.63,2.76,1a14.26,14.26,0,0,1,1.47.72C95.33,53.31,95.31,53.35,95.3,53.35Zm10.36,38.26c.17,3.17.33,6.34.32,9.51,0,2.09-.34,4.18-.52,6.27-.11,1.12-.22,2.23-.32,3.35a40.15,40.15,0,0,1-1.66,9c-.25.75-.43,1.53-.62,2.29-.52,2.12-1.15,2.38-3.12,1.29.31-.61.6-1.24,1-1.83,1.54-2.69,1.22-5.78,1.89-8.66.75-3.21,1.12-6.52,1.62-9.79a15.83,15.83,0,0,0,0-1.95c.05-1.43.22-2.86.14-4.27-.21-4-.52-8-.81-11.94-.17-2.31-.39-4.61-.58-6.91-.29-3.45-.65-6.9-.83-10.36a62.22,62.22,0,0,1,.15-6.4A3.87,3.87,0,0,1,102.8,60a.2.2,0,0,1,.17-.12h0a.15.15,0,0,1,.16.11,27.1,27.1,0,0,1,.88,3.8c.2,2.06.12,4.15.24,6.22.14,2.51.36,5,.52,7.52C105.08,82.21,105.4,86.91,105.66,91.61Zm29.68,16.75h-.28c-.17-.61-.36-1.22-.51-1.84a2.05,2.05,0,0,0-2.77-1.7l-1.6.31c-.1-.6-.17-1.16-.28-1.7-.22-1.07-.76-1.31-1.78-.88a4.07,4.07,0,0,1-1.52.36c-.33,0-.65-.32-1-.5h0l0,0c-1.43.37-2.45-.28-3.59-1.09a3,3,0,0,1-1.41-2.56c-.11-2.53-1-3.51-3.43-3.89-1.79-.27-2.47-1.24-2.19-3.27a2.15,2.15,0,0,0-.42-2c-.34-.38-.69-.92,0-1.34l.57.78c.76-4.2,4-6.71,5.74-10.14a22.24,22.24,0,0,0-6.07,8.39,6.36,6.36,0,0,1-.67-1,4,4,0,0,1-.66-2.49c.33-2.53,1.61-4.63,2.43-6.94a13.1,13.1,0,0,0,.22-8.59,37.44,37.44,0,0,0-1.74-4.71,10.26,10.26,0,0,0-2.2-3.07,1.54,1.54,0,0,0-1-.33,29,29,0,0,1-3.23,0c.54-.24,1.06-.51,1.61-.72a7,7,0,0,1,4.33-.6A4.33,4.33,0,0,1,117,60.81a8,8,0,0,0,2.8,2.5A9.6,9.6,0,0,1,123,66.52a2.16,2.16,0,0,0,.69.69l-.39-1.27.22-.11c.6.75,1.2,1.51,1.81,2.26.35.44.68.9,1,1.32,1.83,2,3.49,4.13,4,7a30.44,30.44,0,0,1,.11,6.81,12.33,12.33,0,0,1-.81,2.5,11.21,11.21,0,0,0-.23,1.43,8.83,8.83,0,0,1-.31,1.94,2.11,2.11,0,0,0,.05,1.94,12.24,12.24,0,0,1,.89,2.11,5.12,5.12,0,0,0,2.32,3c1.59.85,2,2.41,2.56,3.87a13.3,13.3,0,0,1,.84,3.68A14.07,14.07,0,0,1,135.34,108.36Z"/><path d="M106,101.12c0,2.09-.34,4.18-.52,6.27-.11,1.12-.22,2.23-.32,3.35a40.15,40.15,0,0,1-1.66,9c-.25.75-.43,1.53-.62,2.29-.52,2.12-1.15,2.38-3.12,1.29.31-.61.6-1.24,1-1.83,1.54-2.69,1.22-5.78,1.89-8.66.75-3.21,1.12-6.52,1.62-9.79a15.83,15.83,0,0,0,0-1.95c.05-1.43.22-2.86.14-4.27-.21-4-.52-8-.81-11.94-.17-2.31-.39-4.61-.58-6.91-.29-3.45-.65-6.9-.83-10.36a62.22,62.22,0,0,1,.15-6.4A3.87,3.87,0,0,1,102.8,60a.2.2,0,0,1,.17-.12h0a.15.15,0,0,1,.16.11,27.1,27.1,0,0,1,.88,3.8c.2,2.06.12,4.15.24,6.22.14,2.51.36,5,.52,7.52.31,4.7.63,9.4.89,14.1C105.83,94.78,106,98,106,101.12Z" fill="#b0d235"/><path d="M95.42,53.17c-.09.14-.11.18-.12.18-2.61-.12-4.31,1.44-6.06,3.08A67.21,67.21,0,0,1,84,60.72c-1.55,1.18-3.28,2.16-4.78,3.4a16.72,16.72,0,0,1-7.65,3.34c-3.9.78-7.82,1.5-11.7,2.38-2,.44-3.83,1.19-5.74,1.81-.25.08-.48.2-.79.32-.59-2,.1-3.63.89-5.29,1.36-2.87,3.7-4.93,6-6.92a82.44,82.44,0,0,1,8.07-5.93,29.87,29.87,0,0,1,10-4.11c2.61-.59,5.33-.75,7.92-1.41,2.25-.57,3.83.41,5.44,1.61l.2.18a.58.58,0,0,1,.07.11,28.52,28.52,0,0,0-3.76-.78,7,7,0,0,0-3.3.4c-4.68,2.23-9.35,4.5-13.89,7A45,45,0,0,0,60.5,65.08a.54.54,0,0,0-.18.42L64,62.73A97,97,0,0,1,82.09,52a11,11,0,0,1,9.1-.52c.9.37,1.85.63,2.76,1A14.26,14.26,0,0,1,95.42,53.17Z" fill="#b0d235"/><path d="M135.73,103.75a13.3,13.3,0,0,0-.84-3.68c-.55-1.46-1-3-2.56-3.87a5.12,5.12,0,0,1-2.32-3,12.24,12.24,0,0,0-.89-2.11,2.11,2.11,0,0,1-.05-1.94,8.83,8.83,0,0,0,.31-1.94,11.21,11.21,0,0,1,.23-1.43,12.33,12.33,0,0,0,.81-2.5,30.44,30.44,0,0,0-.11-6.81c-.47-2.9-2.13-5-4-7-.37-.42-.7-.88-1-1.32-.61-.75-1.21-1.51-1.81-2.26l-.21.15c.13.41.25.82.38,1.23a2.16,2.16,0,0,1-.69-.69,9.6,9.6,0,0,0-3.13-3.21,8,8,0,0,1-2.8-2.5A4.33,4.33,0,0,0,114,58.92a7,7,0,0,0-4.33.6c-.55.21-1.07.48-1.61.72a29,29,0,0,0,3.23,0,1.54,1.54,0,0,1,1,.33,10.26,10.26,0,0,1,2.2,3.07,37.44,37.44,0,0,1,1.74,4.71,13.1,13.1,0,0,1-.22,8.59c-.82,2.31-2.1,4.41-2.43,6.94a4,4,0,0,0,.66,2.49,6.36,6.36,0,0,0,.67,1A22.24,22.24,0,0,1,120.94,79c-1.73,3.43-5,5.94-5.74,10.14l-.57-.78c-.72.42-.37,1,0,1.34a2.15,2.15,0,0,1,.42,2c-.28,2,.4,3,2.19,3.27,2.46.38,3.32,1.36,3.43,3.89a3,3,0,0,0,1.41,2.56c1.14.81,2.16,1.46,3.59,1.09l0,0h0a3.3,3.3,0,0,1-.19-4.19,9.31,9.31,0,0,0,0,2.18,10.94,10.94,0,0,0,1,2.07l-.83-.06h0c.33.18.65.5,1,.5a4.07,4.07,0,0,0,1.52-.36c1-.43,1.56-.19,1.78.88.11.54.18,1.1.28,1.7l1.6-.31a2.05,2.05,0,0,1,2.77,1.7c.15.62.34,1.23.51,1.84l.28,0A13.92,13.92,0,0,0,135.73,103.75ZM115.47,91.94l-.21-.09a13.06,13.06,0,0,1,3.42-7.32Zm13.8-16.46-3.51-1.77C126.92,72.86,129,73.89,129.27,75.48ZM118.6,78.21a12.85,12.85,0,0,0-3.55,5.41c-.17.61-.32,1.22-.49,1.83h-.37a3,3,0,0,1-.14-.92,13,13,0,0,1,5.26-7.93,1,1,0,0,1,.8-.11C119.61,77.07,119.13,77.66,118.6,78.21ZM124,101.46c-1-.51-.61-3.17.72-4.19C124.45,98.67,124.21,100.08,124,101.46Zm3-16.83c-.16-.24-.44-.47-.46-.71a24.87,24.87,0,0,0-3.13-10.6c-.87-1.58-1.68-3.19-2.48-4.81a5.9,5.9,0,0,1-.33-1.2l.42-.13c3,5.41,6.25,10.76,6.23,17.29Zm.07-7.87c-.12-.12-.2-.5-.13-.56a.81.81,0,0,1,.65-.23A2.14,2.14,0,0,1,129,78.35C128.31,77.8,127.66,77.3,127.05,76.76Z" fill="#a07d3b"/><path d="M98,128.36c-.5.61-.89.86-1.56.66a5.67,5.67,0,0,0-4.34,0,5.71,5.71,0,0,1-3.88.48,17.62,17.62,0,0,0-2.51,0c-.19,0-.37-.3-.56-.46.24-.16.49-.47.72-.46,1.42.07,2.84.22,4.26.3a1.62,1.62,0,0,0,.79-.29C93.16,127.31,95.47,127.44,98,128.36Z"/><path d="M84.43,126.08c-.31.18-.59.48-.91.53-1.37.24-2.75.44-4.13.58A3.17,3.17,0,0,1,78,127a.78.78,0,0,1-.39-.63c0-.2.43-.54.55-.5,1.86.67,3.69-.2,5.53,0,.23,0,.44.07.66.1Z"/><path d="M112.08,129.06c-.22.13-.43.36-.65.37-.9,0-1.81,0-2.72,0-.69,0-1.38-.1-2.07-.13s-1.18.05-1.77,0c-.16,0-.29-.35-.43-.53.17-.13.34-.35.52-.36a15.63,15.63,0,0,1,2.46-.1c1.54.11,3.07.32,4.6.49Z"/><path d="M124,127c-1,.94-1.55,1-2.32.3a1.06,1.06,0,0,1,.1-.78C122.59,126.42,123.41,126.18,124,127Z"/><path d="M114.29,129.26a14.1,14.1,0,0,1-1.54.43c-.11,0-.37-.27-.39-.45s.22-.4.37-.41a11.51,11.51,0,0,1,1.44,0Z"/><path d="M116,129.37l-1.12.16,0-.55,1.11-.06Z"/><path d="M127.23,84.47l-.25.16c-.16-.24-.44-.47-.46-.71a24.87,24.87,0,0,0-3.13-10.6c-.87-1.58-1.68-3.19-2.48-4.81a5.9,5.9,0,0,1-.33-1.2l.42-.13C124,72.59,127.25,77.94,127.23,84.47Z"/><path d="M120.11,76.5c-.5.57-1,1.16-1.51,1.71a12.85,12.85,0,0,0-3.55,5.41c-.17.61-.32,1.22-.49,1.83h-.37a3,3,0,0,1-.14-.92,13,13,0,0,1,5.26-7.93A1,1,0,0,1,120.11,76.5Z"/><path d="M118.68,84.53l-3.21,7.41-.21-.09A13.06,13.06,0,0,1,118.68,84.53Z"/><path d="M129.27,75.48l-3.51-1.77C126.92,72.86,129,73.89,129.27,75.48Z"/><path d="M125.62,102.41l0,0,0,0h0Z"/><path d="M126.44,102.46l-.83-.06a3.3,3.3,0,0,1-.19-4.19,9.31,9.31,0,0,0,0,2.18A10.94,10.94,0,0,0,126.44,102.46Z"/><path d="M124.69,97.27c-.24,1.4-.48,2.81-.72,4.19C123,101,123.36,98.29,124.69,97.27Z"/><path d="M129,78.35c-.68-.55-1.33-1-1.94-1.59-.12-.12-.2-.5-.13-.56a.81.81,0,0,1,.65-.23A2.14,2.14,0,0,1,129,78.35Z"/></svg>